<?xml version="1.0" encoding="UTF-8"?>
<svg version="1.2" baseProfile="tiny-ps" xmlns="http://www.w3.org/2000/svg" width="128" height="128" viewBox="0 0 128 128" overflow="visible" xml:space="preserve">
<title>aarnphm.xyz</title>
<desc>Vector logo converted from the aarnphm.xyz site icon for BIMI.</desc>
<path d="M0 0 C42.2 0 84.5 0 128 0 C128 42.2 128 84.5 128 128 C85.8 128 43.5 128 0 128 C0 85.8 0 43.5 0 0 Z " fill="#FCC8B9" transform="translate(0,0)"/>
<path d="M0 0 C42.2 0 84.5 0 128 0 C128 21.1 128 42.2 128 64 C127.3 64 126.7 64 126 64 C125.8 64.5 125.8 64.5 125 67 C123.3 67 121.7 67 120 67 C120 65.3 120 63.7 120 62 C120.7 62 121.3 62 122 62 C122 60 122 58 122 56 C122.7 56 123.3 56 124 56 C124 54.7 124 53.4 124 52 C123.3 52 122.7 52 122 52 C122 52.7 122 53.3 122 54 C121.5 53.8 121.5 53.8 119 53 C119.3 51.4 119.7 49.7 120 48 C119.7 47 119.7 47 118 42 C104.5 36.2 90.6 34 76 34 C74.3 33.7 72.7 33.3 71 33 C71 32.7 71 32.3 71 32 C74 31.7 76.9 31.3 80 31 C74 30 74 30 69 31 C68.3 30.7 67.7 30.3 67 30 C67 29.3 67 28.7 67 28 C64.7 28 62.4 28 60 28 C59.2 27.3 59.2 27.3 55 24 C50.7 23.3 46.3 22.6 42 22 C39 20.7 36 19.4 33 18 C27.9 16.4 27.9 16.4 23 16 C17.8 19.1 14.3 22.7 10 27 C9 27.7 8 28.3 7 29 C6.5 32.8 6.1 36.6 5.9 40.4 C5.1 51.8 5.1 51.8 4 55 C4.3 57 4.7 59 5 61 C4.2 61.2 4.2 61.2 0 62 C0 41.5 0 21.1 0 0 Z " fill="#454A5C" transform="translate(0,0)"/>
<path d="M0 0 C1 0.2 1 0.2 6 1 C8 0.7 10 0.3 12 0 C11 1 10 2 9 3 C8.3 3 7.7 3 7 3 C7.3 5 7.7 7 8 9 C9.3 9.3 10.6 9.7 12 10 C10.7 11.3 9.4 12.6 8 14 C9 18 9 18 12 21 C14.3 22.3 16.7 23.7 19 25 C24.1 29.1 26.4 31.7 28 38 C29.3 39 30.6 40 32 41 C32 42.7 32 44.3 32 46 C33 46.3 34 46.7 35 47 C35 45.6 35 44.2 35 42.7 C35 35.2 35 27.6 35 20 C38.3 20 41.7 20 45 20 C47.3 22.3 46.8 28.1 47 31 C46.9 33.5 46.8 35.9 46.8 38.4 C46.8 40.6 46.9 42.8 47 45 C48.7 46 50.3 47 52 48 C51.8 48.3 51.8 48.3 51 50 C48 50 45 50 42 50 C41.2 50.2 41.2 50.2 37 51 C36 51 35 51 34 51 C34 52 34 53 34 54 C33.7 55.3 33.3 56.6 33 58 C33.7 58.7 34.3 59.3 35 60 C35.2 61.8 35.5 63.6 35.8 65.4 C37 72 37 72 43 83 C24.8 83 6.7 83 -12 83 C-11 79.4 -10 75.7 -9 72 C-8.2 67.7 -7.5 63.3 -6.9 59 C-6.5 56.8 -6.2 54.6 -5.9 52.4 C-5.3 48.3 -4.9 44.2 -4.6 40.1 C-4 35 -4 35 -1 29 C-1.3 28 -1.7 27 -2 26 C-6 25 -6 25 -10 26 C-10.7 24.7 -11.3 23.4 -12 22 C-13.3 21.3 -14.6 20.7 -16 20 C-13.3 17.3 -10.7 14.7 -8 12 C-7.7 10.4 -7.3 8.7 -7 7 C-6.7 7.7 -6.3 8.3 -6 9 C-4.4 8.7 -2.7 8.3 -1 8 C-1.7 7.3 -2.3 6.7 -3 6 C-1.7 4.7 -0.4 3.4 1 2 C0.7 1.3 0.3 0.7 0 0 Z " fill="#494A40" transform="translate(60,45)"/>
<path d="M0 0 C0.7 0.3 1.3 0.7 2 1 C1.3 2.7 0.7 4.3 0 6 C-1 9 -1 9 -1.8 16.2 C-5.2 45.8 -5.2 45.8 -10 57 C-14.9 57.7 -14.9 57.7 -20.7 57.4 C-21.6 57.4 -21.6 57.4 -26.5 57.2 C-28 57.2 -29.5 57.1 -31 57 C-30.7 55.7 -30.3 54.4 -30 53 C-29.3 52.8 -29.3 52.8 -26 52 C-26 51 -26 50 -26 49 C-24.7 49 -23.4 49 -22 49 C-21.7 47 -21.3 45 -21 43 C-23 42.3 -25 41.7 -27 41 C-27.3 41.8 -27.3 41.8 -29 46 C-30.3 46 -31.6 46 -33 46 C-32.7 47 -32.3 48 -32 49 C-32.7 50 -33.3 51 -34 52 C-39 52 -39 52 -43 50 C-42.7 48.7 -42.3 47.4 -42 46 C-42 46.7 -42 47.3 -42 48 C-41 47 -40 46 -39 45 C-39.3 44.3 -39.7 43.7 -40 43 C-39.2 42.8 -39.2 42.8 -35 42 C-34.7 41 -34.3 40 -34 39 C-34.7 38.3 -35.3 37.7 -36 37 C-35.3 37 -34.7 37 -34 37 C-34 36.3 -34 35.7 -34 35 C-35.3 35.7 -36.6 36.3 -38 37 C-39.3 37.7 -40.6 38.3 -42 39 C-43.3 38.3 -44.6 37.7 -46 37 C-46 35.7 -46 34.4 -46 33 C-46.3 32 -46.7 31 -47 30 C-46.3 29.7 -45.7 29.3 -45 29 C-45 29.7 -45 30.3 -45 31 C-44.5 30.7 -44.5 30.7 -41.8 28.9 C-38 27 -38 27 -33 28 C-32 29.3 -31 30.6 -30 32 C-29.3 32 -28.7 32 -28 32 C-27.3 30.7 -26.7 29.4 -26 28 C-24.4 28.3 -22.7 28.7 -21 29 C-20.3 27.3 -19.7 25.7 -19 24 C-17.7 24 -16.4 24 -15 24 C-14.8 24.5 -14.8 24.5 -14 27 C-12.7 27 -11.4 27 -10 27 C-8.4 27 -6.7 27 -5 27 C-4.9 25.7 -4.8 24.4 -4.7 23.1 C-4.5 21.4 -4.4 19.7 -4.2 18 C-4 16.3 -3.9 14.7 -3.7 12.9 C-3 8.2 -1.8 4.4 0 0 Z " fill="#EDC3B2" transform="translate(58,71)"/>
<path d="M0 0 C1.3 0.3 2.6 0.7 4 1 C3.7 1.2 3.7 1.2 2 2 C2 2.7 2 3.3 2 4 C3.3 4.3 4.6 4.7 6 5 C6 7 6 9 6 11 C5 11.3 4 11.7 3 12 C2.7 12.7 2.3 13.3 2 14 C2.7 14 3.3 14 4 14 C4.7 15.3 5.3 16.6 6 18 C7.3 18 8.6 18 10 18 C10 17.3 10 16.7 10 16 C10.7 16 11.3 16 12 16 C11.7 14.7 11.3 13.4 11 12 C12 12 13 12 14 12 C14 12.7 14 13.3 14 14 C14.7 14.3 15.3 14.7 16 15 C15 15.7 14 16.3 13 17 C13.3 18 13.7 19 14 20 C12 20.7 10 21.3 8 22 C6.3 22.7 4.7 23.3 3 24 C2.7 26.3 2.3 28.6 2 31 C-0.7 30.4 -3.4 29.7 -6 29 C-6.3 28.3 -6.7 27.7 -7 27 C-8.7 26.7 -10.3 26.3 -12 26 C-13 22 -13 22 -12.4 16.9 C-12.3 15.3 -12.1 13.7 -12 12 C-12.7 11.3 -13.3 10.7 -14 10 C-13.7 8.7 -13.3 7.4 -13 6 C-12.7 6.7 -12.3 7.3 -12 8 C-11.3 8 -10.7 8 -10 8 C-9.7 6.7 -9.3 5.4 -9 4 C-8 4 -7 4 -6 4 C-6 3.3 -6 2.7 -6 2 C-4.3 2 -2.7 2 -1 2 C-0.7 1.3 -0.3 0.7 0 0 Z " fill="#494A40" transform="translate(94,0)"/>
<path d="M0 0 C0.3 0.7 0.7 1.3 1 2 C2 2.2 2 2.2 7 3 C8 3.3 9 3.7 10 4 C11.2 3.8 11.2 3.8 17 3 C17 4.3 17 5.6 17 7 C18 7.3 19 7.7 20 8 C20 10 20 12 20 14 C18 15.3 16 16.6 14 18 C13.3 17.7 12.7 17.3 12 17 C12.7 16.3 13.3 15.7 14 15 C12.7 15 11.4 15 10 15 C10 12.7 10 10.4 10 8 C11.3 7.3 12.6 6.7 14 6 C11.7 6.3 9.4 6.7 7 7 C6.3 7 5.7 7 5 7 C5 7.7 5 8.3 5 9 C4.3 9.3 4.3 9.3 1 11 C1.7 11.7 2.3 12.3 3 13 C2.7 13.3 2.3 13.7 2 14 C0.4 14 -1.3 14 -3 14 C-3.3 13.7 -3.7 13.3 -4 13 C-4.3 14 -4.7 15 -5 16 C-4.3 16.3 -3.7 16.7 -3 17 C-3.7 17 -4.3 17 -5 17 C-5.3 18 -5.7 19 -6 20 C-8 21.3 -10 22.6 -12 24 C-7 30 -7 30 -3 31 C-3.3 31.7 -3.7 32.3 -4 33 C-9 32 -9 32 -14 27 C-17.6 21.2 -19.1 16.8 -18 10 C-13.8 5.4 -11 4 -5 2 C-3.4 1.3 -1.7 0.7 0 0 Z " fill="#A5A58F" transform="translate(57,40)"/>
<path d="M0 0 C3.3 -0 6.7 -0 10 0 C12.3 2.3 11.8 8.1 12 11 C11.9 13.5 11.8 15.9 11.8 18.4 C11.8 20.6 11.9 22.8 12 25 C13.7 26 15.3 27 17 28 C16.7 28.7 16.3 29.3 16 30 C13 30 10 30 7 30 C5.3 30.3 3.7 30.7 2 31 C1 31 0 31 -1 31 C-1 32 -1 33 -1 34 C-1.3 35.3 -1.7 36.6 -2 38 C-1.3 38.7 -0.7 39.3 0 40 C-0.3 41.3 -0.7 42.6 -1 44 C-4.6 38 -4.6 33.9 -5 27 C-5.3 24.3 -5.6 21.7 -6 19 C-5.5 19.3 -5.5 19.3 -3 21 C-3 22.7 -3 24.3 -3 26 C-2 26.3 -1 26.7 0 27 C0 25.6 0 24.2 0 22.7 C0 15.2 0 7.6 0 0 Z " fill="#B0AF97" transform="translate(95,65)"/>
<path d="M0 0 C1 0.3 2 0.7 3 1 C5.3 8.1 5.3 8.1 4 12 C4.7 12.3 5.3 12.7 6 13 C6 12.3 6 11.7 6 11 C6.7 11 7.3 11 8 11 C8 12.3 8 13.6 8 15 C7.3 15 6.7 15 6 15 C6 17 6 19 6 21 C5.3 21 4.7 21 4 21 C4 22.6 4 24.3 4 26 C5.7 25.7 7.3 25.3 9 25 C9.3 24.3 9.7 23.7 10 23 C10.7 23 11.3 23 12 23 C12 32.2 12 41.5 12 51 C5 49 5 49 2 48 C-0.6 26.2 -0.6 26.2 3 19 C2.3 19 1.7 19 1 19 C1 14.9 1.1 10.9 1.1 6.8 C1 3 1 3 0 0 Z " fill="#ABAB96" transform="translate(116,41)"/>
<path d="M0 0 C0 0.3 0 0.7 0 1 C-1.6 1 -3.2 1 -4.9 0.9 C-10 1 -10 1 -12 2 C-12 4 -12 6 -12 8 C-12.7 7.7 -13.3 7.3 -14 7 C-14 6.3 -14 5.7 -14 5 C-15 5 -16 5 -17 5 C-17.3 6.3 -17.7 7.6 -18 9 C-18.7 9 -19.3 9 -20 9 C-20.3 10 -20.7 11 -21 12 C-22.3 12.3 -23.6 12.7 -25 13 C-25.5 18.3 -25.7 23.3 -25.8 28.6 C-25.8 30.2 -25.8 31.7 -25.9 33.3 C-26.1 44.1 -25.9 54.9 -25.4 65.8 C-25.6 67.2 -25.8 68.6 -26 70 C-32 74 -32 74 -33 74 C-33.1 69.2 -33.2 64.4 -33.2 59.6 C-33.3 58.9 -33.3 58.9 -33.4 55.4 C-33.4 51.9 -33.2 48.5 -33 45 C-32.3 44.8 -32.3 44.8 -29 44 C-29.7 43.3 -30.3 42.7 -31 42 C-30.3 42 -29.7 42 -29 42 C-29.3 40 -29.7 38 -30 36 C-29.8 35.8 -29.8 35.8 -29 35 C-28.5 29.1 -28 23.1 -27.6 17.2 C-27 12 -27 12 -25 10 C-21 7 -21 7 -19 7 C-18.3 5.7 -17.7 4.4 -17 3 C-11.1 -2.6 -7.6 -2.3 0 0 Z " fill="#ABAD96" transform="translate(33,17)"/>
<path d="M0 0 C0.3 0 0.7 0 1 0 C1 6.9 1 13.9 1 21 C-7.4 21.6 -15.6 22 -24 21 C-29.8 15.2 -31.8 10.2 -32 2 C-31.3 2 -30.7 2 -30 2 C-29.3 3.3 -28.7 4.6 -28 6 C-26 7 -24 8 -22 9 C-22 9.7 -22 10.3 -22 11 C-23 12 -24 13 -25 14 C-24.7 15 -24.3 16 -24 17 C-23 16.7 -22 16.3 -21 16 C-21 17 -21 18 -21 19 C-20 18.3 -19 17.7 -18 17 C-18 16 -18 15 -18 14 C-16.8 13.8 -16.8 13.8 -11 13 C-11 12 -11 11 -11 10 C-7 9 -7 9 -3 10 C-3.3 8.7 -3.7 7.4 -4 6 C-2.7 4 -1.4 2 0 0 Z " fill="#B0AF97" transform="translate(127,107)"/>
<path d="M0 0 C5 -0.2 10 -0.2 15 0 C15.3 0.7 15.7 1.3 16 2 C15.3 2 14.7 2 14 2 C14 2.7 14 3.3 14 4 C15.3 4.3 16.6 4.7 18 5 C18 6 18 7 18 8 C18.7 8.3 19.3 8.7 20 9 C20 10.7 20 12.3 20 14 C20.7 14 21.3 14 22 14 C21.7 15 21.3 16 21 17 C19 17 17 17 15 17 C16.6 20.7 18.2 24.4 20 28 C20 28.7 20 29.3 20 30 C19.3 30 18.7 30 18 30 C16.7 28.7 15.4 27.4 14 26 C11.7 25.7 9.4 25.3 7 25 C7 24.7 7 24.3 7 24 C8.7 24 10.3 24 12 24 C10 22.7 8 21.4 6 20 C6 19.3 6 18.7 6 18 C8 18 10 18 12 18 C12 17 12 16 12 15 C13.3 14.7 14.6 14.3 16 14 C16 12.3 16 10.7 16 9 C14.7 8.3 13.4 7.7 12 7 C11.7 8.7 11.3 10.3 11 12 C10.7 11.3 10.3 10.7 10 10 C8.7 10 7.4 10 6 10 C6 10.7 6 11.3 6 12 C4.7 11.7 3.4 11.3 2 11 C2.7 9.3 3.3 7.7 4 6 C3.3 6 2.7 6 2 6 C2 5.3 2 4.7 2 4 C1.3 4 0.7 4 0 4 C0 6 0 8 0 10 C-0.3 10.2 -0.3 10.2 -2 11 C-2.7 8.7 -3.3 6.4 -4 4 C-4.7 4 -5.3 4 -6 4 C-5.7 3 -5.3 2 -5 1 C-4.3 1.2 -4.3 1.2 -1 2 C-0.7 1.3 -0.3 0.7 0 0 Z " fill="#484A44" transform="translate(58,0)"/>
<path d="M0 0 C0.3 0 0.7 0 1 0 C1 6.6 0.1 10.9 -2 17 C-3 18 -3 18 -7.7 18.1 C-8.7 18.1 -8.7 18.1 -13.6 18.1 C-15.5 18.1 -17.4 18 -19.4 18 C-20.9 18 -22.5 18 -24 18 C-23.7 16.7 -23.3 15.4 -23 14 C-21.7 13.7 -20.4 13.3 -19 13 C-19 12 -19 11 -19 10 C-17.7 10 -16.4 10 -15 10 C-14.7 7.7 -14.3 5.4 -14 3 C-12 3.7 -10 4.3 -8 5 C-7.3 4.7 -6.7 4.3 -6 4 C-6 3 -6 2 -6 1 C-5 1.2 -5 1.2 0 2 C0 1.3 0 0.7 0 0 Z " fill="#B2AF98" transform="translate(51,110)"/>
<path d="M0 0 C1 0.3 2 0.7 3 1 C3 2.3 3 3.6 3 5 C4.7 4.7 6.3 4.3 8 4 C9.3 4.7 10.6 5.3 12 6 C12 6.7 12 7.3 12 8 C14.3 8.3 16.6 8.7 19 9 C19.3 7.7 19.7 6.4 20 5 C20.3 4 20.7 3 21 2 C21 2.7 21 3.3 21 4 C22.7 4 24.3 4 26 4 C26 5 26 6 26 7 C25.3 7 24.7 7 24 7 C24 8 24 9 24 10 C23 10 22 10 21 10 C21.8 10.2 21.8 10.2 26 11 C26 12.3 26 13.6 26 15 C20 15 20 15 15.8 14 C10.4 12.9 5.5 12.9 0 13 C-1.7 12.7 -3.3 12.3 -5 12 C-5 11.7 -5 11.3 -5 11 C-3.5 10.8 -3.5 10.8 4 10 C3 9 2 8 1 7 C0.7 4.7 0.3 2.4 0 0 Z " fill="#457779" transform="translate(76,21)"/>
<path d="M0 0 C0.3 0.7 0.7 1.3 1 2 C1.7 2 2.3 2 3 2 C3 9.3 3 16.5 3 24 C2.3 24 1.7 24 1 24 C0.7 25 0.3 26 0 27 C-1.7 27 -3.3 27 -5 27 C-5 25.3 -5 23.7 -5 22 C-4.3 22 -3.7 22 -3 22 C-3 20 -3 18 -3 16 C-2.3 16 -1.7 16 -1 16 C-1 14.7 -1 13.4 -1 12 C-1.7 12 -2.3 12 -3 12 C-3 12.7 -3 13.3 -3 14 C-4 13.7 -5 13.3 -6 13 C-5.7 11.4 -5.3 9.7 -5 8 C-5.3 6 -5.7 4 -6 2 C-5.2 2.3 -5.2 2.3 -1 4 C-1.3 3 -1.7 2 -2 1 C-1.3 0.7 -0.7 0.3 0 0 Z " fill="#4C8482" transform="translate(125,40)"/>
<path d="M0 0 C1.3 1 2.6 2 4 3 C5.7 3.3 7.3 3.7 9 4 C9 5.3 9 6.6 9 8 C8 8 7 8 6 8 C7 10.3 8 12.6 9 15 C7.7 15.3 6.4 15.7 5 16 C5 15.3 5 14.7 5 14 C4.3 14 3.7 14 3 14 C2.7 14.7 2.3 15.3 2 16 C2.7 16 3.3 16 4 16 C4 16.7 4 17.3 4 18 C4.7 18.3 5.3 18.7 6 19 C5.8 22 5.4 25 5 28 C3.3 28 1.7 28 0 28 C0 18.8 0 9.5 0 0 Z " fill="#B7B09A" transform="translate(0,100)"/>
<path d="M0 0 C2 1 4 2 6 3 C5.7 5 5.3 7 5 9 C3.7 9 2.4 9 1 9 C1 10 1 11 1 12 C0.3 12.3 0.3 12.3 -3 14 C-3.3 15 -3.7 16 -4 17 C-6 17 -8 17 -10 17 C-10.3 16 -10.7 15 -11 14 C-12.3 14.3 -13.6 14.7 -15 15 C-15.7 13.3 -16.3 11.7 -17 10 C-16 9.7 -15 9.3 -14 9 C-13.3 9.7 -12.7 10.3 -12 11 C-10.4 11.3 -8.7 11.7 -7 12 C-6.7 10 -6.3 8 -6 6 C-4.7 6 -3.4 6 -2 6 C-1.3 4 -0.7 2 0 0 Z " fill="#FED7BB" transform="translate(31,111)"/>
<path d="M0 0 C0.7 0.3 0.7 0.3 4 2 C3.3 2 2.7 2 2 2 C2.7 3.6 3.3 5.3 4 7 C4 8.3 4 9.6 4 11 C4.7 10.7 5.3 10.3 6 10 C5.1 25.6 5.1 25.6 4 29 C4.3 31 4.7 33 5 35 C4.2 35.2 4.2 35.2 0 36 C0 24.1 0 12.2 0 0 Z " fill="#407D7E" transform="translate(0,26)"/>
<path d="M0 0 C1 0.2 1 0.2 6 1 C6 1.7 6 2.3 6 3 C6.7 3 7.3 3 8 3 C7.7 4.4 7.3 5.8 7 7.2 C6 12 6 12 6 17 C6.7 17 7.3 17 8 17 C8.3 19.3 8.7 21.6 9 24 C8.3 24.7 7.7 25.3 7 26 C4.7 25.3 2.4 24.7 0 24 C-0.7 22.7 -1.3 21.4 -2 20 C-0.7 17.7 0.7 15.3 2 13 C2 10.7 2 8.4 2 6 C1 5.7 0 5.3 -1 5 C-0.7 3.3 -0.3 1.7 0 0 Z " fill="#404880" transform="translate(88,5)"/>
<path d="M0 0 C4 1 4 1 8 4 C10.3 4.3 12.6 4.7 15 5 C15 5.7 15 6.3 15 7 C15.6 6.9 15.6 6.9 18.6 6.4 C23 6 23 6 29 8 C29 8.3 29 8.7 29 9 C28 9.3 27 9.7 26 10 C26.9 10 26.9 10 31.8 9.9 C38 10 38 10 42 12 C39.7 12.3 37.4 12.7 35 13 C33.7 13.3 32.4 13.7 31 14 C31 13 31 12 31 11 C29.7 11 28.4 11 27 11 C26.3 12.3 25.7 13.6 25 15 C22.7 15.3 20.4 15.7 18 16 C18 15.3 18 14.7 18 14 C16.7 13.3 15.4 12.7 14 12 C13.7 10.7 13.3 9.4 13 8 C9.7 6.6 6.3 5.3 3 4 C2 2.7 1 1.4 0 0 Z " fill="#B0AF97" transform="translate(52,23)"/>
<path d="M0 0 C0.7 0 1.3 0 2 0 C2 0.7 2 1.3 2 2 C3.6 2 5.3 2 7 2 C7 10 7 10 6 12 C4.4 12 2.7 12 1 12 C0.3 13.3 -0.3 14.6 -1 16 C-2.3 16 -3.6 16 -5 16 C-8 11 -8 11 -8 8 C-6.4 7.7 -4.7 7.3 -3 7 C-3.3 6.7 -3.7 6.3 -4 6 C-4 4.3 -4 2.7 -4 1 C-2.7 2 -1.4 3 0 4 C0 2.7 0 1.4 0 0 Z " fill="#FFC3BA" transform="translate(45,100)"/>
<path d="M0 0 C2.3 0 4.6 0 7 0 C8 4 8 4 8 8 C8.7 8 9.3 8 10 8 C10 8.7 10 9.3 10 10 C10.7 10 11.3 10 12 10 C12 12.6 12 15.3 12 18 C10.7 18 9.4 18 8 18 C8 18.7 8 19.3 8 20 C7.3 20 6.7 20 6 20 C6 19.3 6 18.7 6 18 C4.3 17.7 2.7 17.3 1 17 C1.3 16 1.7 15 2 14 C3.3 14 4.6 14 6 14 C6 13.3 6 12.7 6 12 C4.3 11.7 2.7 11.3 1 11 C1.3 10 1.7 9 2 8 C2.7 8 3.3 8 4 8 C4.3 8.7 4.7 9.3 5 10 C5.3 8.7 5.7 7.4 6 6 C5.3 6 4.7 6 4 6 C4 5.3 4 4.7 4 4 C2.7 3.7 1.4 3.3 0 3 C0 2 0 1 0 0 Z " fill="#407880" transform="translate(116,20)"/>
<path d="M0 0 C1 0.3 2 0.7 3 1 C5.3 8.1 5.3 8.1 4 12 C4.7 12.3 5.3 12.7 6 13 C6 12.3 6 11.7 6 11 C6.7 11 7.3 11 8 11 C8 12.3 8 13.6 8 15 C7.3 15 6.7 15 6 15 C6 17 6 19 6 21 C5.3 21 4.7 21 4 21 C4 22.6 4 24.3 4 26 C5.7 25.7 7.3 25.3 9 25 C9.3 24.3 9.7 23.7 10 23 C10.7 23 11.3 23 12 23 C12 25.3 12 27.6 12 30 C10 29.7 8 29.3 6 29 C6 28.3 6 27.7 6 27 C5 27 4 27 3 27 C3.3 28.3 3.7 29.6 4 31 C3.3 31.7 2.7 32.3 2 33 C0.8 23.5 0.8 23.5 3 19 C2.3 19 1.7 19 1 19 C1 14.9 1.1 10.9 1.1 6.8 C1 3 1 3 0 0 Z " fill="#ADAD96" transform="translate(116,41)"/>
<path d="M0 0 C4.6 -0.2 4.6 -0.2 9 0 C9 0.7 9 1.3 9 2 C7 2.7 5 3.3 3 4 C3.7 4 4.3 4 5 4 C5.7 6 6.3 8 7 10 C6.3 10 5.7 10 5 10 C5 10.7 5 11.3 5 12 C4.3 12 3.7 12 3 12 C3.7 12.7 4.3 13.3 5 14 C5.7 14 6.3 14 7 14 C7.3 12.3 7.7 10.7 8 9 C8.3 7.3 8.7 5.7 9 4 C9.7 4 10.3 4 11 4 C11 4.7 11 5.3 11 6 C12 6.3 13 6.7 14 7 C13.7 8 13.3 9 13 10 C12.3 10 11.7 10 11 10 C11 10.7 11 11.3 11 12 C10 12 9 12 8 12 C8.3 13.3 8.7 14.6 9 16 C8.3 16 7.7 16 7 16 C7 16.7 7 17.3 7 18 C5.7 18 4.4 18 3 18 C2.7 18.7 2.3 19.3 2 20 C1.7 18 1.3 16 1 14 C0.3 14 -0.3 14 -1 14 C-0.7 13 -0.3 12 0 11 C1 11 2 11 3 11 C2 6 2 6 1 4 C0.3 4 -0.3 4 -1 4 C-0.7 2.7 -0.3 1.4 0 0 Z " fill="#405280" transform="translate(97,0)"/>
<path d="M0 0 C1 0.3 2 0.7 3 1 C5.5 8.4 5.5 12.6 3 20 C1.3 20 -0.3 20 -2 20 C-2.7 13.3 -3 7.7 -2 1 C-1.3 0.7 -0.7 0.3 0 0 Z " fill="#47524B" transform="translate(100,73)"/>
<path d="M0 0 C1 1.7 2 3.3 3 5 C-1 8 -1 8 -4 8 C-4.8 8.5 -4.8 8.5 -9 11 C-10.3 10.3 -11.6 9.7 -13 9 C-13 7.7 -13 6.4 -13 5 C-13.3 4 -13.7 3 -14 2 C-13.3 1.7 -12.7 1.3 -12 1 C-12 1.7 -12 2.3 -12 3 C-10.9 2.3 -9.9 1.6 -8.8 0.9 C-5 -1 -5 -1 0 0 Z " fill="#B2AF98" transform="translate(25,99)"/>
<path d="M0 0 C3 -0.1 6 -0.1 9 0 C9.3 0.7 9.7 1.3 10 2 C9.7 2.7 9.3 3.3 9 4 C8 4 7 4 6 4 C6 6.6 6 9.3 6 12 C4.7 12 3.4 12 2 12 C2.7 10.3 3.3 8.7 4 7 C3.3 6.7 2.7 6.3 2 6 C2 5.3 2 4.7 2 4 C1.3 4 0.7 4 0 4 C0 6 0 8 0 10 C-0.7 11.3 -1.3 12.6 -2 14 C-3 14.3 -4 14.7 -5 15 C-5.3 14 -5.7 13 -6 12 C-5.3 12 -4.7 12 -4 12 C-4 11.3 -4 10.7 -4 10 C-3.3 10 -2.7 10 -2 10 C-2.7 8 -3.3 6 -4 4 C-4.7 4 -5.3 4 -6 4 C-5.7 3.3 -5.3 2.7 -5 2 C-3.3 2 -1.7 2 0 2 C0 1.3 0 0.7 0 0 Z " fill="#474B47" transform="translate(106,0)"/>
<path d="M0 0 C4.9 0.8 4.9 0.8 10 2 C12 5 12 5 12 10 C11.3 9.7 10.7 9.3 10 9 C9.7 9.3 9.3 9.7 9 10 C8.3 10 7.7 10 7 10 C6.7 11.3 6.3 12.6 6 14 C4.3 14 2.7 14 1 14 C1 13.3 1 12.7 1 12 C0 11 -1 10 -2 9 C-2 8.3 -2 7.7 -2 7 C-0.5 6.8 -0.5 6.8 7 6 C6.2 5.7 6.2 5.7 2 4 C1 3 0 2 -1 1 C-0.7 0.7 -0.3 0.3 0 0 Z " fill="#FFC1BA" transform="translate(108,100)"/>
<path d="M0 0 C0.5 0.3 0.5 0.3 3 2 C3 3.7 3 5.3 3 7 C4 7.3 5 7.7 6 8 C6.3 5.4 6.7 2.7 7 0 C7.7 0 8.3 0 9 0 C9 3 9 5.9 9 9 C10.3 9 11.6 9 13 9 C13 9.7 13 10.3 13 11 C8 12 8 12 5 12 C5 13 5 14 5 15 C4.7 16.3 4.3 17.6 4 19 C4.7 19.7 5.3 20.3 6 21 C5.7 22.3 5.3 23.6 5 25 C1.4 19 1.4 14.9 1 8 C0.7 5.3 0.4 2.7 0 0 Z " fill="#B0AF97" transform="translate(89,84)"/>
<path d="M0 0 C0.8 0.3 0.8 0.3 5 2 C5 2.7 5 3.3 5 4 C3.7 4 2.4 4 1 4 C1 4.7 1 5.3 1 6 C1.7 6 2.3 6 3 6 C2.3 8.3 1.7 10.6 1 13 C0 12.8 0 12.8 -5 12 C-5.3 7.7 -5.3 7.7 -5 3 C-3.3 2 -1.7 1 0 0 Z " fill="#FFFCBE" transform="translate(5,88)"/>
<path d="M0 0 C2.6 0 5.3 0 8 0 C8.3 1 8.7 2 9 3 C8.3 4 8.3 4 5 9 C4.3 11.3 3.7 13.6 3 16 C2.3 17 1.7 18 1 19 C0.5 12.6 0 6.4 0 0 Z " fill="#B0AF97" transform="translate(95,65)"/>
<path d="M0 0 C2 0.7 4 1.3 6 2 C6 2.7 6 3.3 6 4 C5.7 4.3 5.3 4.7 5 5 C6.7 5.3 8.3 5.7 10 6 C10.7 7.3 11.3 8.6 12 10 C5 11 5 11 3 10 C3 9.3 3 8.7 3 8 C0.7 8 -1.6 8 -4 8 C-4 7 -4 6 -4 5 C-2.7 4.3 -1.3 3.7 0 3 C0 2 0 1 0 0 Z " fill="#477C81" transform="translate(64,20)"/>
<path d="M0 0 C0.7 0 1.3 0 2 0 C2 0.7 2 1.3 2 2 C2.7 2 3.3 2 4 2 C3.7 4 3.3 6 3 8 C2.7 7.3 2.3 6.7 2 6 C0.7 6 -0.6 6 -2 6 C-2 6.7 -2 7.3 -2 8 C-2.7 8 -3.3 8 -4 8 C-4 8.7 -4 9.3 -4 10 C-4.7 10 -5.3 10 -6 10 C-6 10.7 -6 11.3 -6 12 C-7.3 11.7 -8.6 11.3 -10 11 C-10.2 6.4 -10.2 6.4 -10 2 C-9 2.3 -8 2.7 -7 3 C-6.7 4.6 -6.3 6.3 -6 8 C-6 7.3 -6 6.7 -6 6 C-4 5.3 -2 4.7 0 4 C-0.3 3 -0.7 2 -1 1 C-0.7 0.7 -0.3 0.3 0 0 Z " fill="#404980" transform="translate(10,12)"/>
<path d="M0 0 C1.3 0.7 2.6 1.3 4 2 C4.3 3 4.7 4 5 5 C4 5 3 5 2 5 C2 6 2 7 2 8 C-0.3 8.3 -2.6 8.7 -5 9 C-4.7 10.3 -4.3 11.6 -4 13 C-5.3 13.3 -6.6 13.7 -8 14 C-8.2 13.2 -8.2 13.2 -9 9 C-6 5 -6 5 -1 4 C-0.7 2.7 -0.3 1.4 0 0 Z " fill="#FFC0BA" transform="translate(114,112)"/>
<path d="M0 0 C1 0.3 2 0.7 3 1 C3.3 2.7 3.7 4.3 4 6 C3.3 6 2.7 6 2 6 C2 6.7 2 7.3 2 8 C-0.3 8.3 -2.6 8.7 -5 9 C-6.3 9.3 -7.6 9.7 -9 10 C-10 10 -11 10 -12 10 C-12 9.3 -12 8.7 -12 8 C-11.3 8 -10.7 8 -10 8 C-10 7.3 -10 6.7 -10 6 C-7.7 5 -5.4 4 -3 3 C-2 2 -1 1 0 0 Z " fill="#F6C0B6" transform="translate(21,105)"/>
<path d="M0 0 C3 0.6 6 1.3 9 2 C9 2.7 9 3.3 9 4 C8.3 4 7.7 4 7 4 C7 5.3 7 6.6 7 8 C6.3 8 5.7 8 5 8 C4.7 9 4.3 10 4 11 C3.7 10.7 3.3 10.3 3 10 C3 8 3 6 3 4 C2.3 4 1.7 4 1 4 C1 4.7 1 5.3 1 6 C0.7 6.2 0.7 6.2 -1 7 C-0.3 7.3 0.3 7.7 1 8 C0.7 9.3 0.3 10.6 0 12 C-1 12 -2 12 -3 12 C-3 9.4 -3 6.7 -3 4 C-2 4 -1 4 0 4 C0 2.7 0 1.4 0 0 Z " fill="#405C80" transform="translate(115,0)"/>
<path d="M0 0 C0 1 0 2 0 3 C-1.3 3 -2.6 3 -4 3 C-3.7 4 -3.3 5 -3 6 C-3.3 6.5 -3.3 6.5 -5 9 C-10 9 -10 9 -14 7 C-13.7 5.7 -13.3 4.4 -13 3 C-13 3.7 -13 4.3 -13 5 C-12 4 -11 3 -10 2 C-8.7 2 -7.4 2 -6 2 C-6 1.3 -6 0.7 -6 0 C-4 -1 -4 -1 0 0 Z " fill="#B2AF98" transform="translate(29,114)"/>
<path d="M0 0 C1 0 2 0 3 0 C3 6 3 6 1 10 C1.3 10.7 1.7 11.3 2 12 C-1.7 11.4 -5.3 10.7 -9 10 C-9 9.3 -9 8.7 -9 8 C-8.3 8 -7.7 8 -7 8 C-7.3 6.7 -7.7 5.4 -8 4 C-7.3 4.2 -7.3 4.2 -4 5 C-3.7 6 -3.3 7 -3 8 C-2.3 7.3 -1.7 6.7 -1 6 C-1 4.4 -1 2.7 -1 1 C-0.7 0.7 -0.3 0.3 0 0 Z " fill="#40727F" transform="translate(113,28)"/>
<path d="M0 0 C0.7 0 1.3 0 2 0 C2 0.7 2 1.3 2 2 C3.6 2 5.3 2 7 2 C7 4.3 7 6.6 7 9 C4.4 9 1.7 9 -1 9 C-2 8 -3 7 -4 6 C-4 4.3 -4 2.7 -4 1 C-2.7 2 -1.4 3 0 4 C0 2.7 0 1.4 0 0 Z " fill="#FFF0BD" transform="translate(45,100)"/>
<path d="M0 0 C1 0 2 0 3 0 C3 0.7 3 1.3 3 2 C4 2.2 4 2.2 9 3 C9 4 9 5 9 6 C8.3 6 7.7 6 7 6 C7 8 7 10 7 12 C5.7 11.7 4.4 11.3 3 11 C2.8 10.2 2.8 10.2 2 6 C1.3 6 0.7 6 0 6 C0 4 0 2 0 0 Z " fill="#588A85" transform="translate(119,68)"/>
<path d="M0 0 C0.7 0 1.3 0 2 0 C2 0.7 2 1.3 2 2 C2.7 2 3.3 2 4 2 C4 3.3 4 4.6 4 6 C5 5.7 6 5.3 7 5 C7 6.3 7 7.6 7 9 C6 9.7 5 10.3 4 11 C1.7 10.3 -0.6 9.7 -3 9 C-3.3 8.3 -3.7 7.7 -4 7 C-2.7 7 -1.4 7 0 7 C0 4.7 0 2.4 0 0 Z " fill="#415474" transform="translate(44,12)"/>
<path d="M0 0 C1 0 2 0 3 0 C3 1 3 2 3 3 C4.3 3.3 5.6 3.7 7 4 C7 4.7 7 5.3 7 6 C7.7 6 8.3 6 9 6 C9 5.3 9 4.7 9 4 C10.3 4 11.6 4 13 4 C13 5.3 13 6.6 13 8 C11.7 8 10.4 8 9 8 C9 8.7 9 9.3 9 10 C3 8 3 8 -2 3 C-1.3 2 -0.7 1 0 0 Z " fill="#424471" transform="translate(115,34)"/>
<path d="M0 0 C7.8 0.8 14.6 2.5 22 5 C20.7 5.3 19.4 5.7 18 6 C17.7 7 17.3 8 17 9 C16.7 7.7 16.3 6.4 16 5 C14.3 4.7 12.7 4.3 11 4 C11 5.6 11 7.3 11 9 C10.3 9 9.7 9 9 9 C8.3 7 7.7 5 7 3 C5.7 2.7 4.4 2.3 3 2 C2.7 3 2.3 4 2 5 C1.3 4.3 0.7 3.7 0 3 C0 2 0 1 0 0 Z " fill="#B0AF97" transform="translate(94,35)"/>
<path d="M0 0 C0.7 0 1.3 0 2 0 C2 0.7 2 1.3 2 2 C2.8 2.3 2.8 2.3 7 4 C5.7 5.3 4.4 6.6 3 8 C2.7 6.7 2.3 5.4 2 4 C1.3 4 0.7 4 0 4 C-1 5.7 -2 7.3 -3 9 C-4.3 8.3 -5.6 7.7 -7 7 C-7.3 5.7 -7.7 4.4 -8 3 C-5.4 2.7 -2.7 2.3 0 2 C0 1.3 0 0.7 0 0 Z " fill="#FFFDBE" transform="translate(40,91)"/>
<path d="M0 0 C1.3 0.3 2.6 0.7 4 1 C4.3 3 4.7 5 5 7 C5.7 7 6.3 7 7 7 C7.3 8 7.7 9 8 10 C5.7 10.7 3.4 11.3 1 12 C0.7 10.7 0.3 9.4 0 8 C0.7 8 1.3 8 2 8 C2 7 2 6 2 5 C1 5.3 0 5.7 -1 6 C-1.3 5.3 -1.7 4.7 -2 4 C-1.3 4 -0.7 4 0 4 C0 2.7 0 1.4 0 0 Z " fill="#FFFDBE" transform="translate(22,84)"/>
<path d="M0 0 C-0.3 1 -0.7 2 -1 3 C-2.3 2.7 -3.6 2.3 -5 2 C-5.3 2.7 -5.7 3.3 -6 4 C-5.3 4 -4.7 4 -4 4 C-3.7 4.5 -3.7 4.5 -2 7 C-2.3 8.3 -2.7 9.6 -3 11 C-4 11 -5 11 -6 11 C-6.3 9 -6.7 7 -7 5 C-8 5 -9 5 -10 5 C-10 4 -10 3 -10 2 C-7 0 -7 0 0 0 Z " fill="#404480" transform="translate(58,0)"/>
<path d="M0 0 C0 1 0 2 0 3 C0.7 3.3 1.3 3.7 2 4 C2 5.3 2 6.6 2 8 C0 8 -2 8 -4 8 C-6 4 -6 4 -6 1 C-4 0 -4 0 0 0 Z " fill="#406480" transform="translate(126,10)"/>
<path d="M0 0 C0.7 0 1.3 0 2 0 C2 0.7 2 1.3 2 2 C3.7 1.3 5.3 0.7 7 0 C7.3 1.3 7.7 2.6 8 4 C7 4 6 4 5 4 C5.3 5.3 5.7 6.6 6 8 C5 8.3 4 8.7 3 9 C2.3 7.7 1.7 6.4 1 5 C-0.3 5 -1.6 5 -3 5 C-3 4.3 -3 3.7 -3 3 C-2 3 -1 3 0 3 C0 2 0 1 0 0 Z " fill="#484944" transform="translate(100,28)"/>
<path d="M0 0 C1.3 0.7 2.6 1.3 4 2 C4 3 4 4 4 5 C-0 4.4 -4 3.8 -8 3 C-8.7 2 -9.3 1 -10 0 C-6.7 -1.7 -3.6 -0.6 0 0 Z " fill="#B0AF97" transform="translate(124,94)"/>
<path d="M0 0 C5.4 1.1 10 2.9 15 5 C14.7 5.2 14.7 5.2 13 6 C12.7 8 12.3 10 12 12 C11.3 12 10.7 12 10 12 C9.3 9.7 8.7 7.4 8 5 C3.9 2.6 3.9 2.6 0 1 C0 0.7 0 0.3 0 0 Z " fill="#B0AF97" transform="translate(33,18)"/>
<path d="M0 0 C1 3 1 3 -1 8 C-1.3 8.7 -1.7 9.3 -2 10 C-3 9.7 -4 9.3 -5 9 C-5 7 -5 5 -5 3 C-3.3 2 -1.7 1 0 0 Z " fill="#FFC7BA" transform="translate(5,88)"/>
<path d="M0 0 C2.3 0.3 4.6 0.7 7 1 C8 5 8 5 7 7 C5.7 7 4.4 7 3 7 C3 6.3 3 5.7 3 5 C2 4 1 3 0 2 C0 1.3 0 0.7 0 0 Z " fill="#B0AF97" transform="translate(106,107)"/>
<path d="M0 0 C2.3 0.3 4.6 0.7 7 1 C8.8 4.7 8.1 9 8 13 C7.7 13 7.3 13 7 13 C7 10.4 7 7.7 7 5 C5.4 5 3.7 5 2 5 C2 4.3 2 3.7 2 3 C1 3 0 3 -1 3 C-0.7 2 -0.3 1 0 0 Z " fill="#DEB8AB" transform="translate(45,97)"/>
<path d="M0 0 C0.3 1.6 0.7 3.3 1 5 C0.3 5.7 -0.3 6.3 -1 7 C-3.3 6.3 -5.6 5.7 -8 5 C-3 0 -3 0 0 0 Z " fill="#494A40" transform="translate(96,24)"/>
<path d="M0 0 C0.3 0 0.7 0 1 0 C1 1.7 1 3.3 1 5 C0 5 -1 5 -2 5 C-3 6 -4 7 -5 8 C-6.3 8.3 -7.6 8.7 -9 9 C-9 8.3 -9 7.7 -9 7 C-9.7 7 -10.3 7 -11 7 C-11 6.3 -11 5.7 -11 5 C-9.4 4.7 -7.7 4.4 -6.1 4.1 C-4.4 3.7 -2.7 3.4 -1 3 C-0.7 2 -0.3 1 0 0 Z " fill="#404780" transform="translate(47,5)"/>
<path d="M0 0 C3 2 3 2 5 6 C3.7 5.7 2.4 5.3 1 5 C0.7 6.7 0.3 8.3 0 10 C-0.3 10 -0.7 10 -1 10 C-2.2 6.1 -2.2 6.1 -3 2 C-2 1.3 -1 0.7 0 0 Z " fill="#FFFFBF" transform="translate(121,100)"/>
<path d="M0 0 C2.3 0.7 4.6 1.3 7 2 C7.3 3 7.7 4 8 5 C7.7 5.5 7.7 5.5 6 8 C4.7 7.7 3.4 7.3 2 7 C2.7 6.7 3.3 6.3 4 6 C3.3 5.3 2.7 4.7 2 4 C1.3 4 0.7 4 0 4 C0 2.7 0 1.4 0 0 Z " fill="#494A40" transform="translate(48,14)"/>
<path d="M0 0 C0 3.3 0 6.6 0 10 C-1 9.7 -2 9.3 -3 9 C-4 7 -4 7 -4 1 C-2 0 -2 0 0 0 Z " fill="#42496C" transform="translate(128,4)"/>
<path d="M0 0 C0.7 1 1.3 2 2 3 C1.7 3.7 1.3 4.3 1 5 C-2 5.4 -5 5.7 -8 6 C-8 5.3 -8 4.7 -8 4 C-7.3 4 -6.7 4 -6 4 C-6 3.3 -6 2.7 -6 2 C-4 1.3 -2 0.7 0 0 Z " fill="#FFF8BE" transform="translate(17,109)"/>
<path d="M0 0 C4.9 -0.2 4.9 -0.2 10 0 C10.3 1 10.7 2 11 3 C10 3.3 9 3.7 8 4 C8 3.3 8 2.7 8 2 C6.7 1.7 5.4 1.3 4 1 C4 2 4 3 4 4 C3 4 2 4 1 4 C0.7 2.7 0.3 1.4 0 0 Z " fill="#494A40" transform="translate(12,0)"/>
<path d="M0 0 C2 0 4 0 6 0 C6.3 0.7 6.7 1.3 7 2 C6.3 3.3 5.7 4.6 5 6 C4 5.7 3 5.3 2 5 C1.3 3.3 0.7 1.7 0 0 Z " fill="#475149" transform="translate(97,66)"/>
<path d="M0 0 C1 0.3 2 0.7 3 1 C2.7 2.6 2.3 4.3 2 6 C2.7 6 3.3 6 4 6 C4.3 7.6 4.7 9.3 5 11 C4 11.3 3 11.7 2 12 C2 12.7 2 13.3 2 14 C1.3 13.7 0.7 13.3 0 13 C0.3 12.3 0.7 11.7 1 11 C1.7 11 2.3 11 3 11 C3 10 3 9 3 8 C2 8 1 8 0 8 C0 5.4 0 2.7 0 0 Z " fill="#FFFFBF" transform="translate(34,56)"/>
<path d="M0 0 C1.3 0.7 2.6 1.3 4 2 C5.3 1.3 6.6 0.7 8 0 C6 4 6 4 1 7 C0 6.3 -1 5.7 -2 5 C-1.3 4.3 -0.7 3.7 0 3 C0 2 0 1 0 0 Z " fill="#405C80" transform="translate(8,20)"/>
<path d="M0 0 C1.3 0 2.6 0 4 0 C4 1.3 4 2.6 4 4 C3.3 4 2.7 4 2 4 C2.7 5.3 3.3 6.6 4 8 C2.7 8 1.4 8 0 8 C0 7.3 0 6.7 0 6 C-0.7 5.7 -1.3 5.3 -2 5 C-1 4.3 -0 3.7 1 3 C0.7 2 0.3 1 0 0 Z " fill="#405580" transform="translate(108,12)"/>
<path d="M0 0 C0.3 0 0.7 0 1 0 C1 3.6 1 7.3 1 11 C-1 10 -1 10 -3 6 C-3 5 -3 4 -3 3 C-2.3 3 -1.7 3 -1 3 C-0.7 2 -0.3 1 0 0 Z " fill="#404280" transform="translate(87,11)"/>
<path d="M0 0 C1 0 2 0 3 0 C2.7 1.3 2.3 2.6 2 4 C3 4 4 4 5 4 C5.3 3.3 5.7 2.7 6 2 C6.3 2.7 6.7 3.3 7 4 C6.3 5.3 5.7 6.6 5 8 C3.7 7.7 2.4 7.3 1 7 C1 5.3 1 3.7 1 2 C0.3 1.7 -0.3 1.3 -1 1 C-0.7 0.7 -0.3 0.3 0 0 Z " fill="#405A80" transform="translate(79,0)"/>
<path d="M0 0 C0.7 0 1.3 0 2 0 C2 2.6 2 5.3 2 8 C0.7 8.3 -0.6 8.7 -2 9 C-2.2 8.2 -2.2 8.2 -3 4 C-2 2.7 -1 1.4 0 0 Z " fill="#E6BAAF" transform="translate(108,117)"/>
<path d="M0 0 C2.6 0 5.3 0 8 0 C8.3 0.7 8.7 1.3 9 2 C4 4 4 4 0 4 C-0.7 3.3 -1.3 2.7 -2 2 C-1.3 2 -0.7 2 0 2 C0 1.3 0 0.7 0 0 Z " fill="#FFFFBF" transform="translate(28,78)"/>
<path d="M0 0 C1 0 2 0 3 0 C3 0.7 3 1.3 3 2 C4.7 2.3 6.3 2.7 8 3 C8 3.7 8 4.3 8 5 C7 4.8 7 4.8 2 4 C2 4.7 2 5.3 2 6 C1.3 6 0.7 6 0 6 C0 4 0 2 0 0 Z " fill="#407880" transform="translate(119,68)"/>
<path d="M0 0 C1 0 2 0 3 0 C3 0.7 3 1.3 3 2 C4.3 2.7 5.6 3.3 7 4 C6.7 4.7 6.3 5.3 6 6 C5 6 4 6 3 6 C2.7 6.7 2.3 7.3 2 8 C1.3 5.4 0.7 2.7 0 0 Z " fill="#494A40" transform="translate(57,12)"/>
<path d="M0 0 C0.3 0.7 0.7 1.3 1 2 C2.7 2 4.3 2 6 2 C6 3 6 4 6 5 C5.3 5 4.7 5 4 5 C4 6 4 7 4 8 C3.3 8 2.7 8 2 8 C0 3 0 3 0 0 Z " fill="#5A8B85" transform="translate(96,23)"/>
<path d="M0 0 C1.3 1.3 2.6 2.6 4 4 C3.7 5.7 3.3 7.3 3 9 C2 8.7 1 8.3 0 8 C0 5.4 0 2.7 0 0 Z " fill="#404080" transform="translate(0,3)"/>
<path d="M0 0 C0.7 1.3 1.3 2.6 2 4 C1.7 4.7 1.3 5.3 1 6 C0.3 6 -0.3 6 -1 6 C-1.7 5.3 -2.3 4.7 -3 4 C-4 3.7 -5 3.3 -6 3 C-6 2.3 -6 1.7 -6 1 C-4 0.7 -2 0.3 0 0 Z " fill="#FFF7BE" transform="translate(101,106)"/>
<path d="M0 0 C1.7 0.3 3.3 0.7 5 1 C4.3 1.3 4.3 1.3 1 3 C1.7 4.7 2.3 6.3 3 8 C1.3 7.7 -0.3 7.3 -2 7 C-1.3 4.7 -0.7 2.4 0 0 Z " fill="#FFF1BD" transform="translate(11,90)"/>
<path d="M0 0 C3 4 3 4 4 7 C2 7 0 7 -2 7 C-1 1 -1 1 0 0 Z " fill="#FFFCBE" transform="translate(111,53)"/>
<path d="M0 0 C0.7 0.3 0.7 0.3 4 2 C3.3 2 2.7 2 2 2 C2.7 3.6 3.3 5.3 4 7 C3.3 7.3 3.3 7.3 0 9 C0 6 0 3.1 0 0 Z " fill="#404580" transform="translate(0,26)"/>
<path d="M0 0 C2 0 4 0 6 0 C6 1.3 6 2.6 6 4 C4.7 4.3 3.4 4.7 2 5 C1.3 3.4 0.7 1.7 0 0 Z " fill="#494A40" transform="translate(122,18)"/>
<path d="M0 0 C1.7 0.3 3.3 0.7 5 1 C4.7 2 4.3 3 4 4 C3.3 4 2.7 4 2 4 C2 4.7 2 5.3 2 6 C1 6 0 6 -1 6 C-1 5.3 -1 4.7 -1 4 C-0.3 3.7 0.3 3.3 1 3 C0.3 2.3 -0.3 1.7 -1 1 C-0.7 0.7 -0.3 0.3 0 0 Z " fill="#BAB19B" transform="translate(70,43)"/>
<path d="M0 0 C0.7 0 1.3 0 2 0 C3 3 3 3 2 6 C2.7 6.3 3.3 6.7 4 7 C3.3 7.3 3.3 7.3 0 9 C0 6 0 3.1 0 0 Z " fill="#414174" transform="translate(0,38)"/>
<path d="M0 0 C1.3 0 2.6 0 4 0 C4.3 1 4.7 2 5 3 C4 4.3 3 5.6 2 7 C1.3 7 0.7 7 0 7 C0 4.7 0 2.4 0 0 Z " fill="#407A80" transform="translate(90,9)"/>
<path d="M0 0 C2 0 4 0 6 0 C6 1.3 6 2.6 6 4 C4 4 2 4 0 4 C0 2.7 0 1.4 0 0 Z " fill="#404080" transform="translate(37,4)"/>
<path d="M0 0 C3 0 5.9 0 9 0 C8.7 1 8.3 2 8 3 C7.2 2.7 7.2 2.7 3 1 C3 2 3 3 3 4 C2 4 1 4 0 4 C0 2.7 0 1.4 0 0 Z " fill="#404080" transform="translate(61,0)"/>
<path d="M0 0 C1 2 1 2 0 7 C-1 7 -2 7 -3 7 C-3.3 5.7 -3.7 4.4 -4 3 C-2.7 2 -1.4 1 0 0 Z " fill="#B0AF97" transform="translate(40,99)"/>
<path d="M0 0 C0 1 0 2 0 3 C-0.8 2.7 -0.8 2.7 -5 1 C-5.3 1.7 -5.7 2.3 -6 3 C-6.7 3 -7.3 3 -8 3 C-8 2 -8 1 -8 0 C-6 -1 -6 -1 0 0 Z " fill="#FFFFBF" transform="translate(18,55)"/>
<path d="M0 0 C0.3 1 0.7 2 1 3 C0 4 -1 5 -2 6 C-3.3 6 -4.6 6 -6 6 C-5 3 -5 3 0 0 Z " fill="#494A40" transform="translate(63,20)"/>
<path d="M0 0 C1 0.3 2 0.7 3 1 C3.3 2.7 3.7 4.3 4 6 C3.3 6.3 3.3 6.3 0 8 C0 5.4 0 2.7 0 0 Z " fill="#404F80" transform="translate(16,12)"/>
<path d="M0 0 C1 0 2 0 3 0 C3.3 2.3 3.7 4.6 4 7 C3 7 2 7 1 7 C0.7 4.7 0.3 2.4 0 0 Z " fill="#B0AF97" transform="translate(12,93)"/>
<path d="M0 0 C1.3 1 2.6 2 4 3 C2.3 3.3 0.7 3.7 -1 4 C-1.3 4.7 -1.7 5.3 -2 6 C-2.7 5.3 -3.3 4.7 -4 4 C-3.3 4 -2.7 4 -2 4 C-2 3 -2 2 -2 1 C-1.3 0.7 -0.7 0.3 0 0 Z " fill="#FFFFBF" transform="translate(92,52)"/>
<path d="M0 0 C2.3 0.3 4.6 0.7 7 1 C7.3 2 7.7 3 8 4 C5.7 4 3.4 4 1 4 C0.7 2.7 0.3 1.4 0 0 Z " fill="#B0AF97" transform="translate(13,124)"/>
<path d="M0 0 C0.7 0 1.3 0 2 0 C2.3 2 2.7 4 3 6 C1.3 6.7 -0.3 7.3 -2 8 C-2 6.7 -2 5.4 -2 4 C-1.3 4 -0.7 4 0 4 C0 2.7 0 1.4 0 0 Z " fill="#FFFFBF" transform="translate(117,106)"/>
<path d="M0 0 C0.5 0.3 0.5 0.3 3 2 C2.3 3.7 1.7 5.3 1 7 C0.3 6.7 -0.3 6.3 -1 6 C-1 1 -1 1 0 0 Z " fill="#FFFFBF" transform="translate(111,68)"/>
<path d="M0 0 C0.7 0 1.3 0 2 0 C2 2.3 2 4.6 2 7 C1.3 7 0.7 7 0 7 C-0.7 5.3 -1.3 3.7 -2 2 C-1.3 1.3 -0.7 0.7 0 0 Z " fill="#404080" transform="translate(26,5)"/>
<path d="M0 0 C1.3 0.7 2.6 1.3 4 2 C3 3 2 4 1 5 C0 4.7 -1 4.3 -2 4 C-2 3 -2 2 -2 1 C-1.3 0.7 -0.7 0.3 0 0 Z " fill="#FFFBBE" transform="translate(39,107)"/>
<path d="M0 0 C0.7 0.2 0.7 0.2 4 1 C4.3 1.7 4.7 2.3 5 3 C6 3.7 7 4.3 8 5 C6.3 5 4.7 5 3 5 C1.7 3.7 0.4 2.4 -1 1 C-0.7 0.7 -0.3 0.3 0 0 Z " fill="#B0AF97" transform="translate(108,100)"/>
<path d="M0 0 C1 0 2 0 3 0 C3 1.3 3 2.6 3 4 C1.4 4.3 -0.3 4.7 -2 5 C-2 4 -2 3 -2 2 C-1.3 2 -0.7 2 0 2 C0 1.3 0 0.7 0 0 Z " fill="#FFF7BE" transform="translate(50,94)"/>
<path d="M0 0 C0.8 0.2 0.8 0.2 5 1 C4.3 2.3 3.7 3.6 3 5 C2 4.7 1 4.3 0 4 C0 2.7 0 1.4 0 0 Z " fill="#FFE6BD" transform="translate(69,58)"/>
<path d="M0 0 C1.3 0 2.6 0 4 0 C4 1.3 4 2.6 4 4 C2.4 3.7 0.7 3.3 -1 3 C-0.7 2 -0.3 1 0 0 Z " fill="#FFBFBA" transform="translate(32,116)"/>
<path d="M0 0 C0.7 0 1.3 0 2 0 C1 4 1 4 -2 7 C-2.7 6.3 -3.3 5.7 -4 5 C-3.3 4.7 -2.7 4.3 -2 4 C-1.3 2.7 -0.7 1.4 0 0 Z " fill="#B0AF97" transform="translate(32,99)"/>
<path d="M0 0 C1 0.3 2 0.7 3 1 C3 1.7 3 2.3 3 3 C4.3 3.7 5.6 4.3 7 5 C2 4 2 4 -2 2 C-1.3 2 -0.7 2 0 2 C0 1.3 0 0.7 0 0 Z " fill="#FFFBBE" transform="translate(107,96)"/>
<path d="M0 0 C0.7 0 1.3 0 2 0 C2.7 0.7 3.3 1.3 4 2 C4.7 2 5.3 2 6 2 C6 3 6 4 6 5 C4.7 5 3.4 5 2 5 C2 4.3 2 3.7 2 3 C1.3 3 0.7 3 0 3 C0 2 0 1 0 0 Z " fill="#404080" transform="translate(30,11)"/>
</svg>
