<?xml version="1.0" encoding="UTF-8" standalone="no"?>
<!DOCTYPE svg PUBLIC "-//W3C//DTD SVG 1.1//EN"
 "http://www.w3.org/Graphics/SVG/1.1/DTD/svg11.dtd">
<!-- Generated by graphviz version 10.0.1 (20240210.2158)
 -->
<!-- Title: M2 Pages: 1 -->
<svg width="222pt" height="126pt"
 viewBox="0.00 0.00 222.29 125.76" xmlns="http://www.w3.org/2000/svg" xmlns:xlink="http://www.w3.org/1999/xlink">
<g id="graph0" class="graph" transform="scale(1 1) rotate(0) translate(4 121.76)">
<title>M2</title>
<polygon fill="white" stroke="none" points="-4,4 -4,-121.76 218.29,-121.76 218.29,4 -4,4"/>
<!-- p0 -->
<g id="node1" class="node">
<title>p0</title>
<ellipse fill="none" stroke="black" cx="24.13" cy="-24.13" rx="20.13" ry="20.13"/>
<ellipse fill="none" stroke="black" cx="24.13" cy="-24.13" rx="24.13" ry="24.13"/>
<text text-anchor="middle" x="24.13" y="-19.08" font-family="Times,serif" font-size="14.00">p0</text>
</g>
<!-- p0&#45;&gt;p0 -->
<g id="edge4" class="edge">
<title>p0&#45;&gt;p0</title>
<path fill="none" stroke="black" d="M15.73,-47.1C14.93,-57.38 17.73,-66.26 24.13,-66.26 27.93,-66.26 30.46,-63.13 31.72,-58.43"/>
<polygon fill="black" stroke="black" points="35.2,-58.83 32.42,-48.61 28.22,-58.34 35.2,-58.83"/>
<text text-anchor="middle" x="24.13" y="-69.46" font-family="Times,serif" font-size="14.00">a</text>
</g>
<!-- p1 -->
<g id="node2" class="node">
<title>p1</title>
<ellipse fill="none" stroke="black" cx="111.14" cy="-63.13" rx="20.13" ry="20.13"/>
<text text-anchor="middle" x="111.14" y="-58.08" font-family="Times,serif" font-size="14.00">p1</text>
</g>
<!-- p0&#45;&gt;p1 -->
<g id="edge1" class="edge">
<title>p0&#45;&gt;p1</title>
<path fill="none" stroke="black" d="M46.58,-33.97C57.32,-38.9 70.45,-44.92 81.99,-50.21"/>
<polygon fill="black" stroke="black" points="80.5,-53.38 91.05,-54.37 83.42,-47.02 80.5,-53.38"/>
<text text-anchor="middle" x="69.64" y="-48.33" font-family="Times,serif" font-size="14.00">b</text>
</g>
<!-- p1&#45;&gt;p1 -->
<g id="edge5" class="edge">
<title>p1&#45;&gt;p1</title>
<path fill="none" stroke="black" d="M103.68,-81.97C102.41,-92.06 104.9,-101.26 111.14,-101.26 114.85,-101.26 117.23,-98.02 118.29,-93.27"/>
<polygon fill="black" stroke="black" points="121.78,-93.57 118.56,-83.48 114.79,-93.38 121.78,-93.57"/>
<text text-anchor="middle" x="111.14" y="-104.46" font-family="Times,serif" font-size="14.00">a</text>
</g>
<!-- p2 -->
<g id="node3" class="node">
<title>p2</title>
<ellipse fill="none" stroke="black" cx="194.16" cy="-24.13" rx="20.13" ry="20.13"/>
<text text-anchor="middle" x="194.16" y="-19.08" font-family="Times,serif" font-size="14.00">p2</text>
</g>
<!-- p1&#45;&gt;p2 -->
<g id="edge2" class="edge">
<title>p1&#45;&gt;p2</title>
<path fill="none" stroke="black" d="M129.72,-54.67C140.13,-49.66 153.54,-43.2 165.35,-37.52"/>
<polygon fill="black" stroke="black" points="166.76,-40.72 174.25,-33.23 163.72,-34.42 166.76,-40.72"/>
<text text-anchor="middle" x="152.65" y="-47.33" font-family="Times,serif" font-size="14.00">b</text>
</g>
<!-- p2&#45;&gt;p0 -->
<g id="edge3" class="edge">
<title>p2&#45;&gt;p0</title>
<path fill="none" stroke="black" d="M173.69,-21.56C161.52,-20.08 145.51,-18.38 131.27,-17.63 113.4,-16.7 108.88,-16.75 91.01,-17.63 80.86,-18.13 69.87,-19.06 59.82,-20.06"/>
<polygon fill="black" stroke="black" points="59.65,-16.56 50.07,-21.09 60.39,-23.52 59.65,-16.56"/>
<text text-anchor="middle" x="111.14" y="-21.33" font-family="Times,serif" font-size="14.00">b</text>
</g>
<!-- p2&#45;&gt;p2 -->
<g id="edge6" class="edge">
<title>p2&#45;&gt;p2</title>
<path fill="none" stroke="black" d="M186.69,-42.97C185.43,-53.06 187.91,-62.26 194.16,-62.26 197.86,-62.26 200.24,-59.02 201.3,-54.27"/>
<polygon fill="black" stroke="black" points="204.8,-54.57 201.57,-44.48 197.8,-54.38 204.8,-54.57"/>
<text text-anchor="middle" x="194.16" y="-65.46" font-family="Times,serif" font-size="14.00">a</text>
</g>
</g>
</svg>
