<?xml version="1.0" encoding="UTF-8" standalone="no"?>
<!DOCTYPE svg PUBLIC "-//W3C//DTD SVG 1.1//EN"
 "http://www.w3.org/Graphics/SVG/1.1/DTD/svg11.dtd">
<!-- Generated by graphviz version 10.0.1 (20240210.2158)
 -->
<!-- Pages: 1 -->
<svg width="352pt" height="91pt"
 viewBox="0.00 0.00 352.29 91.26" xmlns="http://www.w3.org/2000/svg" xmlns:xlink="http://www.w3.org/1999/xlink">
<g id="graph0" class="graph" transform="scale(1 1) rotate(0) translate(4 87.26)">
<polygon fill="white" stroke="none" points="-4,4 -4,-87.26 348.29,-87.26 348.29,4 -4,4"/>
<!-- q0 -->
<g id="node1" class="node">
<title>q0</title>
<ellipse fill="none" stroke="black" cx="115.13" cy="-24.13" rx="20.13" ry="20.13"/>
<ellipse fill="none" stroke="black" cx="115.13" cy="-24.13" rx="24.13" ry="24.13"/>
<text text-anchor="middle" x="115.13" y="-19.08" font-family="Times,serif" font-size="14.00">q0</text>
</g>
<!-- q1 -->
<g id="node2" class="node">
<title>q1</title>
<ellipse fill="none" stroke="black" cx="221.64" cy="-63.13" rx="20.13" ry="20.13"/>
<text text-anchor="middle" x="221.64" y="-58.08" font-family="Times,serif" font-size="14.00">q1</text>
</g>
<!-- q0&#45;&gt;q1 -->
<g id="edge2" class="edge">
<title>q0&#45;&gt;q1</title>
<path fill="none" stroke="black" d="M138.3,-32.4C153.93,-38.23 175.01,-46.1 191.92,-52.41"/>
<polygon fill="black" stroke="black" points="190.33,-55.56 200.92,-55.77 192.78,-49 190.33,-55.56"/>
<text text-anchor="middle" x="170.39" y="-52.33" font-family="Times,serif" font-size="14.00">a/b/c</text>
</g>
<!-- q2 -->
<g id="node3" class="node">
<title>q2</title>
<ellipse fill="none" stroke="black" cx="324.16" cy="-24.13" rx="20.13" ry="20.13"/>
<text text-anchor="middle" x="324.16" y="-19.08" font-family="Times,serif" font-size="14.00">q2</text>
</g>
<!-- q1&#45;&gt;q2 -->
<g id="edge3" class="edge">
<title>q1&#45;&gt;q2</title>
<path fill="none" stroke="black" d="M240.61,-56.16C255.53,-50.37 277.02,-42.03 294.34,-35.31"/>
<polygon fill="black" stroke="black" points="295.53,-38.6 303.59,-31.72 293,-32.08 295.53,-38.6"/>
<text text-anchor="middle" x="272.9" y="-52.33" font-family="Times,serif" font-size="14.00">a/b/c</text>
</g>
<!-- q2&#45;&gt;q0 -->
<g id="edge4" class="edge">
<title>q2&#45;&gt;q0</title>
<path fill="none" stroke="black" d="M303.78,-22.15C287.31,-20.56 263.02,-18.48 241.77,-17.63 210.88,-16.4 175.72,-18.52 150.48,-20.66"/>
<polygon fill="black" stroke="black" points="150.44,-17.15 140.79,-21.53 151.06,-24.12 150.44,-17.15"/>
<text text-anchor="middle" x="221.64" y="-21.33" font-family="Times,serif" font-size="14.00">a/b/c</text>
</g>
<!-- qi -->
<g id="node4" class="node">
<title>qi</title>
</g>
<!-- qi&#45;&gt;q0 -->
<g id="edge1" class="edge">
<title>qi&#45;&gt;q0</title>
<path fill="none" stroke="black" d="M53.84,-24.13C61.88,-24.13 70.88,-24.13 79.42,-24.13"/>
<polygon fill="black" stroke="black" points="79.14,-27.63 89.14,-24.13 79.14,-20.63 79.14,-27.63"/>
</g>
</g>
</svg>
