<?xml version="1.0" encoding="UTF-8" standalone="no"?>
<!DOCTYPE svg PUBLIC "-//W3C//DTD SVG 1.1//EN"
 "http://www.w3.org/Graphics/SVG/1.1/DTD/svg11.dtd">
<!-- Generated by graphviz version 10.0.1 (20240210.2158)
 -->
<!-- Pages: 1 -->
<svg width="313pt" height="91pt"
 viewBox="0.00 0.00 312.54 90.76" xmlns="http://www.w3.org/2000/svg" xmlns:xlink="http://www.w3.org/1999/xlink">
<g id="graph0" class="graph" transform="scale(1 1) rotate(0) translate(4 86.76)">
<polygon fill="white" stroke="none" points="-4,4 -4,-86.76 308.54,-86.76 308.54,4 -4,4"/>
<!-- q0 -->
<g id="node1" class="node">
<title>q0</title>
<ellipse fill="none" stroke="black" cx="111.13" cy="-24.13" rx="20.13" ry="20.13"/>
<text text-anchor="middle" x="111.13" y="-19.08" font-family="Times,serif" font-size="14.00">q0</text>
</g>
<!-- q1 -->
<g id="node2" class="node">
<title>q1</title>
<ellipse fill="none" stroke="black" cx="198.14" cy="-24.13" rx="20.13" ry="20.13"/>
<ellipse fill="none" stroke="black" cx="198.14" cy="-24.13" rx="24.13" ry="24.13"/>
<text text-anchor="middle" x="198.14" y="-19.08" font-family="Times,serif" font-size="14.00">q1</text>
</g>
<!-- q0&#45;&gt;q1 -->
<g id="edge2" class="edge">
<title>q0&#45;&gt;q1</title>
<path fill="none" stroke="black" d="M131.42,-24.13C140.53,-24.13 151.7,-24.13 162.22,-24.13"/>
<polygon fill="black" stroke="black" points="162.17,-27.63 172.17,-24.13 162.17,-20.63 162.17,-27.63"/>
<text text-anchor="middle" x="152.64" y="-27.33" font-family="Times,serif" font-size="14.00">b</text>
</g>
<!-- q1&#45;&gt;q1 -->
<g id="edge3" class="edge">
<title>q1&#45;&gt;q1</title>
<path fill="none" stroke="black" d="M189.81,-47.1C189.02,-57.38 191.8,-66.26 198.14,-66.26 201.91,-66.26 204.42,-63.13 205.67,-58.43"/>
<polygon fill="black" stroke="black" points="209.15,-58.83 206.37,-48.61 202.17,-58.34 209.15,-58.83"/>
<text text-anchor="middle" x="198.14" y="-69.46" font-family="Times,serif" font-size="14.00">b</text>
</g>
<!-- q2 -->
<g id="node3" class="node">
<title>q2</title>
<ellipse fill="none" stroke="black" cx="284.41" cy="-24.13" rx="20.13" ry="20.13"/>
<text text-anchor="middle" x="284.41" y="-19.08" font-family="Times,serif" font-size="14.00">q2</text>
</g>
<!-- q1&#45;&gt;q2 -->
<g id="edge4" class="edge">
<title>q1&#45;&gt;q2</title>
<path fill="none" stroke="black" d="M222.62,-24.13C231.89,-24.13 242.68,-24.13 252.58,-24.13"/>
<polygon fill="black" stroke="black" points="252.52,-27.63 262.52,-24.13 252.52,-20.63 252.52,-27.63"/>
<text text-anchor="middle" x="243.27" y="-27.33" font-family="Times,serif" font-size="14.00">a</text>
</g>
<!-- q2&#45;&gt;q1 -->
<g id="edge5" class="edge">
<title>q2&#45;&gt;q1</title>
<path fill="none" stroke="black" d="M267.16,-12.84C260.92,-9.14 253.55,-5.51 246.27,-3.63 240.23,-2.07 233.96,-2.9 228.05,-4.92"/>
<polygon fill="black" stroke="black" points="226.9,-1.6 219.29,-8.97 229.84,-7.95 226.9,-1.6"/>
<text text-anchor="middle" x="243.27" y="-7.33" font-family="Times,serif" font-size="14.00">a</text>
</g>
<!-- q2&#45;&gt;q2 -->
<g id="edge6" class="edge">
<title>q2&#45;&gt;q2</title>
<path fill="none" stroke="black" d="M276.96,-43.36C275.82,-53.3 278.3,-62.26 284.41,-62.26 287.94,-62.26 290.25,-59.27 291.36,-54.82"/>
<polygon fill="black" stroke="black" points="294.85,-55.01 291.78,-44.87 287.86,-54.71 294.85,-55.01"/>
<text text-anchor="middle" x="284.41" y="-65.46" font-family="Times,serif" font-size="14.00">b</text>
</g>
<!-- qi -->
<g id="node4" class="node">
<title>qi</title>
</g>
<!-- qi&#45;&gt;q0 -->
<g id="edge1" class="edge">
<title>qi&#45;&gt;q0</title>
<path fill="none" stroke="black" d="M53.99,-24.13C62.04,-24.13 70.98,-24.13 79.33,-24.13"/>
<polygon fill="black" stroke="black" points="79.05,-27.63 89.05,-24.13 79.05,-20.63 79.05,-27.63"/>
</g>
</g>
</svg>
