<?xml version="1.0" encoding="UTF-8" standalone="no"?>
<!DOCTYPE svg PUBLIC "-//W3C//DTD SVG 1.1//EN"
 "http://www.w3.org/Graphics/SVG/1.1/DTD/svg11.dtd">
<!-- Generated by graphviz version 2.40.1 (0)
 -->
<!-- Title: %3 Pages: 1 -->
<svg width="192pt" height="81pt"
 viewBox="0.00 0.00 192.00 81.00" xmlns="http://www.w3.org/2000/svg" xmlns:xlink="http://www.w3.org/1999/xlink">
<g id="graph0" class="graph" transform="scale(1 1) rotate(0) translate(4 77)">
<title>%3</title>
<polygon fill="#ffffff" stroke="transparent" points="-4,4 -4,-77 188,-77 188,4 -4,4"/>
<!-- _q₀ -->
<g id="node1" class="node">
<title>_q₀</title>
</g>
<!-- q₀ -->
<g id="node2" class="node">
<title>q₀</title>
<ellipse fill="none" stroke="#000000" cx="47" cy="-13" rx="9" ry="9"/>
<text text-anchor="middle" x="47" y="-10.5" font-family="Noto Sans" font-size="10.00" fill="#000000">q₀</text>
</g>
<!-- _q₀&#45;&gt;q₀ -->
<g id="edge1" class="edge">
<title>_q₀&#45;&gt;q₀</title>
<path fill="none" stroke="#000000" d="M1.0222,-13C4.1026,-13 20.1843,-13 32.4687,-13"/>
<polygon fill="#000000" stroke="#000000" points="32.7853,-14.7501 37.7853,-13 32.7853,-11.2501 32.7853,-14.7501"/>
</g>
<!-- q₁ -->
<g id="node3" class="node">
<title>q₁</title>
<ellipse fill="none" stroke="#000000" cx="107" cy="-35" rx="9" ry="9"/>
<text text-anchor="middle" x="107" y="-32.5" font-family="Noto Sans" font-size="10.00" fill="#000000">q₁</text>
</g>
<!-- q₀&#45;&gt;q₁ -->
<g id="edge2" class="edge">
<title>q₀&#45;&gt;q₁</title>
<path fill="none" stroke="#000000" d="M55.5965,-16.1521C65.4877,-19.7788 81.8558,-25.7805 93.4622,-30.0361"/>
<polygon fill="#000000" stroke="#000000" points="93.1226,-31.7755 98.4194,-31.8538 94.3275,-28.4894 93.1226,-31.7755"/>
<text text-anchor="middle" x="77" y="-27" font-family="Noto Sans" font-size="10.00" fill="#000000">a</text>
</g>
<!-- q₂ -->
<g id="node4" class="node">
<title>q₂</title>
<ellipse fill="none" stroke="#000000" cx="171" cy="-13" rx="9" ry="9"/>
<ellipse fill="none" stroke="#000000" cx="171" cy="-13" rx="13" ry="13"/>
<text text-anchor="middle" x="171" y="-10.5" font-family="Noto Sans" font-size="10.00" fill="#000000">q₂</text>
</g>
<!-- q₀&#45;&gt;q₂ -->
<g id="edge3" class="edge">
<title>q₀&#45;&gt;q₂</title>
<path fill="none" stroke="#000000" d="M55.99,-11.3877C66.1489,-9.6542 83.1988,-7.011 98,-6 116.7793,-4.7172 138.2152,-7.2508 152.9758,-9.6205"/>
<polygon fill="#000000" stroke="#000000" points="152.8741,-11.3778 158.0947,-10.4788 153.4529,-7.926 152.8741,-11.3778"/>
<text text-anchor="middle" x="107" y="-9" font-family="Noto Sans" font-size="10.00" fill="#000000">c</text>
</g>
<!-- q₁&#45;&gt;q₁ -->
<g id="edge4" class="edge">
<title>q₁&#45;&gt;q₁</title>
<path fill="none" stroke="#000000" d="M102.7813,-43.0156C99.9688,-51.875 101.375,-62 107,-62 111.5703,-62 113.3556,-55.3159 112.3558,-48.0574"/>
<polygon fill="#000000" stroke="#000000" points="114.026,-47.5081 111.2188,-43.0156 110.6117,-48.2782 114.026,-47.5081"/>
<text text-anchor="middle" x="107" y="-65" font-family="Noto Sans" font-size="10.00" fill="#000000">b</text>
</g>
<!-- q₁&#45;&gt;q₂ -->
<g id="edge5" class="edge">
<title>q₁&#45;&gt;q₂</title>
<path fill="none" stroke="#000000" d="M115.6313,-32.033C125.3042,-28.7079 141.241,-23.2297 153.5391,-19.0022"/>
<polygon fill="#000000" stroke="#000000" points="154.3986,-20.5573 158.5581,-17.2769 153.2608,-17.2474 154.3986,-20.5573"/>
<text text-anchor="middle" x="137" y="-28" font-family="Noto Sans" font-size="10.00" fill="#000000">c</text>
</g>
</g>
</svg>
