<?xml version="1.0" encoding="UTF-8" standalone="no"?>
<!DOCTYPE svg PUBLIC "-//W3C//DTD SVG 1.1//EN"
 "http://www.w3.org/Graphics/SVG/1.1/DTD/svg11.dtd">
<!-- Generated by graphviz version 2.40.1 (0)
 -->
<!-- Title: %3 Pages: 1 -->
<svg width="192pt" height="78pt"
 viewBox="0.00 0.00 192.00 78.00" xmlns="http://www.w3.org/2000/svg" xmlns:xlink="http://www.w3.org/1999/xlink">
<g id="graph0" class="graph" transform="scale(1 1) rotate(0) translate(4 74)">
<title>%3</title>
<polygon fill="#ffffff" stroke="transparent" points="-4,4 -4,-74 188,-74 188,4 -4,4"/>
<!-- _0 -->
<g id="node1" class="node">
<title>_0</title>
</g>
<!-- 0 -->
<g id="node2" class="node">
<title>0</title>
<ellipse fill="none" stroke="#000000" cx="47" cy="-35" rx="9" ry="9"/>
<text text-anchor="middle" x="47" y="-32.5" font-family="Noto Sans" font-size="10.00" fill="#000000">0</text>
</g>
<!-- _0&#45;&gt;0 -->
<g id="edge1" class="edge">
<title>_0&#45;&gt;0</title>
<path fill="none" stroke="#000000" d="M1.0222,-35C4.1026,-35 20.1843,-35 32.4687,-35"/>
<polygon fill="#000000" stroke="#000000" points="32.7853,-36.7501 37.7853,-35 32.7853,-33.2501 32.7853,-36.7501"/>
</g>
<!-- 1 -->
<g id="node3" class="node">
<title>1</title>
<ellipse fill="none" stroke="#000000" cx="107" cy="-35" rx="9" ry="9"/>
<text text-anchor="middle" x="107" y="-32.5" font-family="Noto Sans" font-size="10.00" fill="#000000">1</text>
</g>
<!-- 0&#45;&gt;1 -->
<g id="edge2" class="edge">
<title>0&#45;&gt;1</title>
<path fill="none" stroke="#000000" d="M56.1127,-35C65.8041,-35 81.269,-35 92.6092,-35"/>
<polygon fill="#000000" stroke="#000000" points="92.8016,-36.7501 97.8015,-35 92.8015,-33.2501 92.8016,-36.7501"/>
<text text-anchor="middle" x="77" y="-38" font-family="Noto Sans" font-size="10.00" fill="#000000">a</text>
</g>
<!-- 2 -->
<g id="node4" class="node">
<title>2</title>
<ellipse fill="none" stroke="#000000" cx="171" cy="-57" rx="9" ry="9"/>
<ellipse fill="none" stroke="#000000" cx="171" cy="-57" rx="13" ry="13"/>
<text text-anchor="middle" x="171" y="-54.5" font-family="Noto Sans" font-size="10.00" fill="#000000">2</text>
</g>
<!-- 1&#45;&gt;2 -->
<g id="edge3" class="edge">
<title>1&#45;&gt;2</title>
<path fill="none" stroke="#000000" d="M115.6313,-37.967C125.3042,-41.2921 141.241,-46.7703 153.5391,-50.9978"/>
<polygon fill="#000000" stroke="#000000" points="153.2608,-52.7526 158.5581,-52.7231 154.3986,-49.4427 153.2608,-52.7526"/>
<text text-anchor="middle" x="137" y="-49" font-family="Noto Sans" font-size="10.00" fill="#000000">b</text>
</g>
<!-- 3 -->
<g id="node5" class="node">
<title>3</title>
<ellipse fill="none" stroke="#000000" cx="171" cy="-13" rx="9" ry="9"/>
<ellipse fill="none" stroke="#000000" cx="171" cy="-13" rx="13" ry="13"/>
<text text-anchor="middle" x="171" y="-10.5" font-family="Noto Sans" font-size="10.00" fill="#000000">3</text>
</g>
<!-- 1&#45;&gt;3 -->
<g id="edge4" class="edge">
<title>1&#45;&gt;3</title>
<path fill="none" stroke="#000000" d="M115.6313,-32.033C125.3042,-28.7079 141.241,-23.2297 153.5391,-19.0022"/>
<polygon fill="#000000" stroke="#000000" points="154.3986,-20.5573 158.5581,-17.2769 153.2608,-17.2474 154.3986,-20.5573"/>
<text text-anchor="middle" x="137" y="-28" font-family="Noto Sans" font-size="10.00" fill="#000000">c</text>
</g>
</g>
</svg>
