<?xml version="1.0" encoding="UTF-8" standalone="no"?>
<!DOCTYPE svg PUBLIC "-//W3C//DTD SVG 1.1//EN"
 "http://www.w3.org/Graphics/SVG/1.1/DTD/svg11.dtd">
<!-- Generated by graphviz version 10.0.1 (20240210.2158)
 -->
<!-- Title: M_union Pages: 1 -->
<svg width="720pt" height="222pt"
 viewBox="0.00 0.00 720.00 221.58" xmlns="http://www.w3.org/2000/svg" xmlns:xlink="http://www.w3.org/1999/xlink">
<g id="graph0" class="graph" transform="scale(0.585407 0.585407) rotate(0) translate(4 374.5)">
<title>M_union</title>
<polygon fill="white" stroke="none" points="-4,4 -4,-374.5 1225.91,-374.5 1225.91,4 -4,4"/>
<!-- (&#39;q0&#39;, &#39;p0&#39;) -->
<g id="node1" class="node">
<title>(&#39;q0&#39;, &#39;p0&#39;)</title>
<ellipse fill="none" stroke="black" cx="50.75" cy="-142" rx="46.75" ry="46.75"/>
<ellipse fill="none" stroke="black" cx="50.75" cy="-142" rx="50.75" ry="50.75"/>
<text text-anchor="middle" x="50.75" y="-136.95" font-family="Times,serif" font-size="14.00">(&#39;q0&#39;, &#39;p0&#39;)</text>
</g>
<!-- (&#39;q0&#39;, &#39;p1&#39;) -->
<g id="node2" class="node">
<title>(&#39;q0&#39;, &#39;p1&#39;)</title>
<ellipse fill="none" stroke="black" cx="194.99" cy="-183" rx="46.75" ry="46.75"/>
<ellipse fill="none" stroke="black" cx="194.99" cy="-183" rx="50.75" ry="50.75"/>
<text text-anchor="middle" x="194.99" y="-177.95" font-family="Times,serif" font-size="14.00">(&#39;q0&#39;, &#39;p1&#39;)</text>
</g>
<!-- (&#39;q0&#39;, &#39;p0&#39;)&#45;&gt;(&#39;q0&#39;, &#39;p1&#39;) -->
<g id="edge2" class="edge">
<title>(&#39;q0&#39;, &#39;p0&#39;)&#45;&gt;(&#39;q0&#39;, &#39;p1&#39;)</title>
<path fill="none" stroke="black" d="M99.9,-155.88C111.14,-159.12 123.23,-162.61 134.89,-165.96"/>
<polygon fill="black" stroke="black" points="133.85,-169.31 144.42,-168.71 135.79,-162.58 133.85,-169.31"/>
<text text-anchor="middle" x="122.87" y="-166.2" font-family="Times,serif" font-size="14.00">b</text>
</g>
<!-- (&#39;q1&#39;, &#39;p0&#39;) -->
<g id="node4" class="node">
<title>(&#39;q1&#39;, &#39;p0&#39;)</title>
<ellipse fill="none" stroke="black" cx="618.96" cy="-85" rx="46.75" ry="46.75"/>
<ellipse fill="none" stroke="black" cx="618.96" cy="-85" rx="50.75" ry="50.75"/>
<text text-anchor="middle" x="618.96" y="-79.95" font-family="Times,serif" font-size="14.00">(&#39;q1&#39;, &#39;p0&#39;)</text>
</g>
<!-- (&#39;q0&#39;, &#39;p0&#39;)&#45;&gt;(&#39;q1&#39;, &#39;p0&#39;) -->
<g id="edge1" class="edge">
<title>(&#39;q0&#39;, &#39;p0&#39;)&#45;&gt;(&#39;q1&#39;, &#39;p0&#39;)</title>
<path fill="none" stroke="black" d="M96.26,-118.7C123.68,-106.47 159.97,-94 193.99,-94 193.99,-94 193.99,-94 479.72,-94 504.93,-94 532.68,-92.49 556.66,-90.71"/>
<polygon fill="black" stroke="black" points="556.89,-94.2 566.59,-89.93 556.35,-87.22 556.89,-94.2"/>
<text text-anchor="middle" x="339.23" y="-97.2" font-family="Times,serif" font-size="14.00">a</text>
</g>
<!-- (&#39;q0&#39;, &#39;p2&#39;) -->
<g id="node3" class="node">
<title>(&#39;q0&#39;, &#39;p2&#39;)</title>
<ellipse fill="none" stroke="black" cx="339.23" cy="-283" rx="46.75" ry="46.75"/>
<ellipse fill="none" stroke="black" cx="339.23" cy="-283" rx="50.75" ry="50.75"/>
<text text-anchor="middle" x="339.23" y="-277.95" font-family="Times,serif" font-size="14.00">(&#39;q0&#39;, &#39;p2&#39;)</text>
</g>
<!-- (&#39;q0&#39;, &#39;p1&#39;)&#45;&gt;(&#39;q0&#39;, &#39;p2&#39;) -->
<g id="edge4" class="edge">
<title>(&#39;q0&#39;, &#39;p1&#39;)&#45;&gt;(&#39;q0&#39;, &#39;p2&#39;)</title>
<path fill="none" stroke="black" d="M237.13,-211.92C253.05,-223.12 271.43,-236.04 288.11,-247.77"/>
<polygon fill="black" stroke="black" points="285.74,-250.38 295.94,-253.27 289.77,-244.66 285.74,-250.38"/>
<text text-anchor="middle" x="267.11" y="-236.2" font-family="Times,serif" font-size="14.00">b</text>
</g>
<!-- (&#39;q1&#39;, &#39;p1&#39;) -->
<g id="node5" class="node">
<title>(&#39;q1&#39;, &#39;p1&#39;)</title>
<ellipse fill="none" stroke="black" cx="759.2" cy="-172" rx="46.75" ry="46.75"/>
<text text-anchor="middle" x="759.2" y="-166.95" font-family="Times,serif" font-size="14.00">(&#39;q1&#39;, &#39;p1&#39;)</text>
</g>
<!-- (&#39;q0&#39;, &#39;p1&#39;)&#45;&gt;(&#39;q1&#39;, &#39;p1&#39;) -->
<g id="edge3" class="edge">
<title>(&#39;q0&#39;, &#39;p1&#39;)&#45;&gt;(&#39;q1&#39;, &#39;p1&#39;)</title>
<path fill="none" stroke="black" d="M246.15,-180.46C293.91,-178.17 367.82,-174.94 431.97,-173.5 526.12,-171.39 635.58,-171.39 700.75,-171.65"/>
<polygon fill="black" stroke="black" points="700.47,-175.14 710.49,-171.69 700.5,-168.14 700.47,-175.14"/>
<text text-anchor="middle" x="478.72" y="-177.2" font-family="Times,serif" font-size="14.00">a</text>
</g>
<!-- (&#39;q0&#39;, &#39;p2&#39;)&#45;&gt;(&#39;q0&#39;, &#39;p0&#39;) -->
<g id="edge6" class="edge">
<title>(&#39;q0&#39;, &#39;p2&#39;)&#45;&gt;(&#39;q0&#39;, &#39;p0&#39;)</title>
<path fill="none" stroke="black" d="M288.24,-281.13C247.2,-277.7 188.8,-268.3 144.24,-243 122.28,-230.54 102.63,-211.03 87.14,-192.48"/>
<polygon fill="black" stroke="black" points="90.06,-190.52 81.06,-184.94 84.62,-194.92 90.06,-190.52"/>
<text text-anchor="middle" x="194.99" y="-279.2" font-family="Times,serif" font-size="14.00">b</text>
</g>
<!-- (&#39;q1&#39;, &#39;p2&#39;) -->
<g id="node6" class="node">
<title>(&#39;q1&#39;, &#39;p2&#39;)</title>
<ellipse fill="none" stroke="black" cx="478.72" cy="-279" rx="46.75" ry="46.75"/>
<text text-anchor="middle" x="478.72" y="-273.95" font-family="Times,serif" font-size="14.00">(&#39;q1&#39;, &#39;p2&#39;)</text>
</g>
<!-- (&#39;q0&#39;, &#39;p2&#39;)&#45;&gt;(&#39;q1&#39;, &#39;p2&#39;) -->
<g id="edge5" class="edge">
<title>(&#39;q0&#39;, &#39;p2&#39;)&#45;&gt;(&#39;q1&#39;, &#39;p2&#39;)</title>
<path fill="none" stroke="black" d="M390.25,-281.54C399.96,-281.26 410.22,-280.96 420.15,-280.67"/>
<polygon fill="black" stroke="black" points="420.2,-284.17 430.1,-280.39 420,-277.18 420.2,-284.17"/>
<text text-anchor="middle" x="410.97" y="-284.2" font-family="Times,serif" font-size="14.00">a</text>
</g>
<!-- (&#39;q1&#39;, &#39;p0&#39;)&#45;&gt;(&#39;q1&#39;, &#39;p1&#39;) -->
<g id="edge8" class="edge">
<title>(&#39;q1&#39;, &#39;p0&#39;)&#45;&gt;(&#39;q1&#39;, &#39;p1&#39;)</title>
<path fill="none" stroke="black" d="M662.56,-111.81C677.54,-121.24 694.48,-131.9 709.89,-141.6"/>
<polygon fill="black" stroke="black" points="707.65,-144.33 717.98,-146.69 711.38,-138.4 707.65,-144.33"/>
<text text-anchor="middle" x="691.08" y="-135.2" font-family="Times,serif" font-size="14.00">b</text>
</g>
<!-- (&#39;q2&#39;, &#39;p0&#39;) -->
<g id="node7" class="node">
<title>(&#39;q2&#39;, &#39;p0&#39;)</title>
<ellipse fill="none" stroke="black" cx="1171.17" cy="-111" rx="46.75" ry="46.75"/>
<ellipse fill="none" stroke="black" cx="1171.17" cy="-111" rx="50.75" ry="50.75"/>
<text text-anchor="middle" x="1171.17" y="-105.95" font-family="Times,serif" font-size="14.00">(&#39;q2&#39;, &#39;p0&#39;)</text>
</g>
<!-- (&#39;q1&#39;, &#39;p0&#39;)&#45;&gt;(&#39;q2&#39;, &#39;p0&#39;) -->
<g id="edge7" class="edge">
<title>(&#39;q1&#39;, &#39;p0&#39;)&#45;&gt;(&#39;q2&#39;, &#39;p0&#39;)</title>
<path fill="none" stroke="black" d="M669.86,-86.61C696.14,-87.32 728.91,-88 758.2,-88 758.2,-88 758.2,-88 1031.93,-88 1057.87,-88 1086.18,-91.99 1110.38,-96.64"/>
<polygon fill="black" stroke="black" points="1109.57,-100.05 1120.07,-98.59 1110.96,-93.19 1109.57,-100.05"/>
<text text-anchor="middle" x="894.69" y="-91.2" font-family="Times,serif" font-size="14.00">a</text>
</g>
<!-- (&#39;q1&#39;, &#39;p1&#39;)&#45;&gt;(&#39;q1&#39;, &#39;p2&#39;) -->
<g id="edge10" class="edge">
<title>(&#39;q1&#39;, &#39;p1&#39;)&#45;&gt;(&#39;q1&#39;, &#39;p2&#39;)</title>
<path fill="none" stroke="black" d="M715.35,-188.46C666.47,-207.24 586.49,-237.97 533.48,-258.34"/>
<polygon fill="black" stroke="black" points="532.42,-255 524.34,-261.86 534.93,-261.54 532.42,-255"/>
<text text-anchor="middle" x="618.96" y="-248.2" font-family="Times,serif" font-size="14.00">b</text>
</g>
<!-- (&#39;q2&#39;, &#39;p1&#39;) -->
<g id="node8" class="node">
<title>(&#39;q2&#39;, &#39;p1&#39;)</title>
<ellipse fill="none" stroke="black" cx="894.69" cy="-199" rx="46.75" ry="46.75"/>
<text text-anchor="middle" x="894.69" y="-193.95" font-family="Times,serif" font-size="14.00">(&#39;q2&#39;, &#39;p1&#39;)</text>
</g>
<!-- (&#39;q1&#39;, &#39;p1&#39;)&#45;&gt;(&#39;q2&#39;, &#39;p1&#39;) -->
<g id="edge9" class="edge">
<title>(&#39;q1&#39;, &#39;p1&#39;)&#45;&gt;(&#39;q2&#39;, &#39;p1&#39;)</title>
<path fill="none" stroke="black" d="M805.39,-181.14C815.72,-183.23 826.82,-185.48 837.55,-187.64"/>
<polygon fill="black" stroke="black" points="836.56,-191.02 847.06,-189.57 837.95,-184.16 836.56,-191.02"/>
<text text-anchor="middle" x="826.94" y="-189.2" font-family="Times,serif" font-size="14.00">a</text>
</g>
<!-- (&#39;q1&#39;, &#39;p2&#39;)&#45;&gt;(&#39;q1&#39;, &#39;p0&#39;) -->
<g id="edge12" class="edge">
<title>(&#39;q1&#39;, &#39;p2&#39;)&#45;&gt;(&#39;q1&#39;, &#39;p0&#39;)</title>
<path fill="none" stroke="black" d="M517.94,-253C529.26,-244.07 541.06,-233.43 550.21,-222 553.14,-218.34 573.45,-177.03 591.08,-140.72"/>
<polygon fill="black" stroke="black" points="594.09,-142.53 595.3,-132.01 587.79,-139.48 594.09,-142.53"/>
<text text-anchor="middle" x="546.84" y="-233.2" font-family="Times,serif" font-size="14.00">b</text>
</g>
<!-- (&#39;q2&#39;, &#39;p2&#39;) -->
<g id="node9" class="node">
<title>(&#39;q2&#39;, &#39;p2&#39;)</title>
<ellipse fill="none" stroke="black" cx="1030.93" cy="-276" rx="46.75" ry="46.75"/>
<text text-anchor="middle" x="1030.93" y="-270.95" font-family="Times,serif" font-size="14.00">(&#39;q2&#39;, &#39;p2&#39;)</text>
</g>
<!-- (&#39;q1&#39;, &#39;p2&#39;)&#45;&gt;(&#39;q2&#39;, &#39;p2&#39;) -->
<g id="edge11" class="edge">
<title>(&#39;q1&#39;, &#39;p2&#39;)&#45;&gt;(&#39;q2&#39;, &#39;p2&#39;)</title>
<path fill="none" stroke="black" d="M524.57,-289.81C551.48,-295.37 586.49,-301 617.96,-301 617.96,-301 617.96,-301 895.69,-301 921.88,-301 950.47,-296.34 974.51,-291.05"/>
<polygon fill="black" stroke="black" points="975.13,-294.5 984.09,-288.84 973.56,-287.68 975.13,-294.5"/>
<text text-anchor="middle" x="759.2" y="-304.2" font-family="Times,serif" font-size="14.00">a</text>
</g>
<!-- (&#39;q2&#39;, &#39;p0&#39;)&#45;&gt;(&#39;q0&#39;, &#39;p0&#39;) -->
<g id="edge13" class="edge">
<title>(&#39;q2&#39;, &#39;p0&#39;)&#45;&gt;(&#39;q0&#39;, &#39;p0&#39;)</title>
<path fill="none" stroke="black" d="M1141.94,-69.04C1117.09,-37.6 1077.79,0 1031.93,0 193.99,0 193.99,0 193.99,0 142.73,0 103.46,-46.75 79.3,-86.6"/>
<polygon fill="black" stroke="black" points="76.43,-84.58 74.4,-94.98 82.47,-88.12 76.43,-84.58"/>
<text text-anchor="middle" x="618.96" y="-3.2" font-family="Times,serif" font-size="14.00">a</text>
</g>
<!-- (&#39;q2&#39;, &#39;p0&#39;)&#45;&gt;(&#39;q2&#39;, &#39;p1&#39;) -->
<g id="edge14" class="edge">
<title>(&#39;q2&#39;, &#39;p0&#39;)&#45;&gt;(&#39;q2&#39;, &#39;p1&#39;)</title>
<path fill="none" stroke="black" d="M1122.38,-126.32C1074.35,-141.72 1000.42,-165.42 950.15,-181.54"/>
<polygon fill="black" stroke="black" points="949.38,-178.11 940.92,-184.5 951.52,-184.78 949.38,-178.11"/>
<text text-anchor="middle" x="1030.93" y="-173.2" font-family="Times,serif" font-size="14.00">b</text>
</g>
<!-- (&#39;q2&#39;, &#39;p1&#39;)&#45;&gt;(&#39;q0&#39;, &#39;p1&#39;) -->
<g id="edge15" class="edge">
<title>(&#39;q2&#39;, &#39;p1&#39;)&#45;&gt;(&#39;q0&#39;, &#39;p1&#39;)</title>
<path fill="none" stroke="black" d="M850.48,-215.41C836.45,-220.16 820.7,-224.9 805.94,-228 746.42,-240.51 730.46,-238.11 669.7,-241 624.65,-243.14 606.15,-265.4 568.21,-241 551.99,-230.56 566.22,-212.26 550.21,-201.5 536.99,-192.62 279.62,-191.14 263.73,-190 261.56,-189.84 259.36,-189.68 257.13,-189.5"/>
<polygon fill="black" stroke="black" points="257.67,-186.03 247.41,-188.65 257.07,-193 257.67,-186.03"/>
<text text-anchor="middle" x="546.84" y="-205.2" font-family="Times,serif" font-size="14.00">a</text>
</g>
<!-- (&#39;q2&#39;, &#39;p1&#39;)&#45;&gt;(&#39;q2&#39;, &#39;p2&#39;) -->
<g id="edge16" class="edge">
<title>(&#39;q2&#39;, &#39;p1&#39;)&#45;&gt;(&#39;q2&#39;, &#39;p2&#39;)</title>
<path fill="none" stroke="black" d="M935.6,-221.89C949.54,-229.89 965.37,-238.97 980.02,-247.37"/>
<polygon fill="black" stroke="black" points="978.21,-250.37 988.62,-252.31 981.69,-244.3 978.21,-250.37"/>
<text text-anchor="middle" x="962.81" y="-241.2" font-family="Times,serif" font-size="14.00">b</text>
</g>
<!-- (&#39;q2&#39;, &#39;p2&#39;)&#45;&gt;(&#39;q0&#39;, &#39;p2&#39;) -->
<g id="edge17" class="edge">
<title>(&#39;q2&#39;, &#39;p2&#39;)&#45;&gt;(&#39;q0&#39;, &#39;p2&#39;)</title>
<path fill="none" stroke="black" d="M996.81,-308.4C971.34,-329.83 934.1,-354 895.69,-354 477.72,-354 477.72,-354 477.72,-354 445.44,-354 413.17,-338.36 388.02,-321.76"/>
<polygon fill="black" stroke="black" points="390.21,-319.02 379.99,-316.24 386.25,-324.79 390.21,-319.02"/>
<text text-anchor="middle" x="691.08" y="-357.2" font-family="Times,serif" font-size="14.00">a</text>
</g>
<!-- (&#39;q2&#39;, &#39;p2&#39;)&#45;&gt;(&#39;q2&#39;, &#39;p0&#39;) -->
<g id="edge18" class="edge">
<title>(&#39;q2&#39;, &#39;p2&#39;)&#45;&gt;(&#39;q2&#39;, &#39;p0&#39;)</title>
<path fill="none" stroke="black" d="M1061.58,-240.6C1081.75,-216.53 1108.67,-184.4 1130.66,-158.16"/>
<polygon fill="black" stroke="black" points="1133.2,-160.58 1136.93,-150.67 1127.83,-156.08 1133.2,-160.58"/>
<text text-anchor="middle" x="1099.05" y="-202.2" font-family="Times,serif" font-size="14.00">b</text>
</g>
</g>
</svg>
