<?xml version="1.0" encoding="UTF-8" standalone="no"?>
<!DOCTYPE svg PUBLIC "-//W3C//DTD SVG 1.1//EN"
 "http://www.w3.org/Graphics/SVG/1.1/DTD/svg11.dtd">
<!-- Generated by graphviz version 10.0.1 (20240210.2158)
 -->
<!-- Title: DFA from NFA Pages: 1 -->
<svg width="517pt" height="127pt"
 viewBox="0.00 0.00 516.78 126.84" xmlns="http://www.w3.org/2000/svg" xmlns:xlink="http://www.w3.org/1999/xlink">
<g id="graph0" class="graph" transform="scale(1 1) rotate(0) translate(4 122.84)">
<title>DFA from NFA</title>
<polygon fill="white" stroke="none" points="-4,4 -4,-122.84 512.78,-122.84 512.78,4 -4,4"/>
<!-- D3 -->
<g id="node1" class="node">
<title>D3</title>
<ellipse fill="none" stroke="black" cx="290.64" cy="-92.66" rx="22.18" ry="22.18"/>
<ellipse fill="none" stroke="black" cx="290.64" cy="-92.66" rx="26.18" ry="26.18"/>
<text text-anchor="middle" x="290.64" y="-87.61" font-family="Times,serif" font-size="14.00">D3</text>
</g>
<!-- D5 -->
<g id="node2" class="node">
<title>D5</title>
<ellipse fill="none" stroke="black" cx="385.75" cy="-92.66" rx="22.18" ry="22.18"/>
<ellipse fill="none" stroke="black" cx="385.75" cy="-92.66" rx="26.18" ry="26.18"/>
<text text-anchor="middle" x="385.75" y="-87.61" font-family="Times,serif" font-size="14.00">D5</text>
</g>
<!-- D3&#45;&gt;D5 -->
<g id="edge8" class="edge">
<title>D3&#45;&gt;D5</title>
<path fill="none" stroke="black" d="M316.71,-96.06C322.64,-96.72 328.94,-97.32 334.82,-97.66 339.24,-97.91 343.88,-97.87 348.47,-97.64"/>
<polygon fill="black" stroke="black" points="348.45,-101.15 358.13,-96.85 347.88,-94.17 348.45,-101.15"/>
<text text-anchor="middle" x="338.2" y="-101.86" font-family="Times,serif" font-size="14.00">a</text>
</g>
<!-- D4 -->
<g id="node7" class="node">
<title>D4</title>
<ellipse fill="none" stroke="black" cx="385.75" cy="-26.66" rx="22.18" ry="22.18"/>
<text text-anchor="middle" x="385.75" y="-21.61" font-family="Times,serif" font-size="14.00">D4</text>
</g>
<!-- D3&#45;&gt;D4 -->
<g id="edge9" class="edge">
<title>D3&#45;&gt;D4</title>
<path fill="none" stroke="black" d="M312.57,-78.07C321.52,-71.81 332.07,-64.4 341.57,-57.66 346.84,-53.92 352.45,-49.91 357.83,-46.05"/>
<polygon fill="black" stroke="black" points="359.82,-48.93 365.9,-40.26 355.74,-43.25 359.82,-48.93"/>
<text text-anchor="middle" x="338.2" y="-64.86" font-family="Times,serif" font-size="14.00">b</text>
</g>
<!-- D6 -->
<g id="node8" class="node">
<title>D6</title>
<ellipse fill="none" stroke="black" cx="486.61" cy="-59.66" rx="22.18" ry="22.18"/>
<text text-anchor="middle" x="486.61" y="-54.61" font-family="Times,serif" font-size="14.00">D6</text>
</g>
<!-- D5&#45;&gt;D6 -->
<g id="edge11" class="edge">
<title>D5&#45;&gt;D6</title>
<path fill="none" stroke="black" d="M410.93,-84.59C424.01,-80.22 440.32,-74.78 454.35,-70.09"/>
<polygon fill="black" stroke="black" points="455.2,-73.5 463.58,-67.01 452.98,-66.86 455.2,-73.5"/>
<text text-anchor="middle" x="438.18" y="-81.86" font-family="Times,serif" font-size="14.00">a,b</text>
</g>
<!-- start -->
<g id="node3" class="node">
<title>start</title>
<text text-anchor="middle" x="27" y="-54.61" font-family="Times,serif" font-size="14.00">start</text>
</g>
<!-- D0 -->
<g id="node4" class="node">
<title>D0</title>
<ellipse fill="none" stroke="black" cx="113.18" cy="-59.66" rx="22.18" ry="22.18"/>
<text text-anchor="middle" x="113.18" y="-54.61" font-family="Times,serif" font-size="14.00">D0</text>
</g>
<!-- start&#45;&gt;D0 -->
<g id="edge1" class="edge">
<title>start&#45;&gt;D0</title>
<path fill="none" stroke="black" d="M53.71,-59.66C61.73,-59.66 70.69,-59.66 79.14,-59.66"/>
<polygon fill="black" stroke="black" points="79.08,-63.16 89.08,-59.66 79.08,-56.16 79.08,-63.16"/>
</g>
<!-- D0&#45;&gt;D0 -->
<g id="edge3" class="edge">
<title>D0&#45;&gt;D0</title>
<path fill="none" stroke="black" d="M105.74,-80.74C104.82,-90.89 107.3,-99.84 113.18,-99.84 116.67,-99.84 118.96,-96.68 120.06,-91.99"/>
<polygon fill="black" stroke="black" points="123.54,-92.42 120.54,-82.26 116.55,-92.07 123.54,-92.42"/>
<text text-anchor="middle" x="113.18" y="-103.04" font-family="Times,serif" font-size="14.00">b</text>
</g>
<!-- D1 -->
<g id="node5" class="node">
<title>D1</title>
<ellipse fill="none" stroke="black" cx="199.54" cy="-59.66" rx="22.18" ry="22.18"/>
<text text-anchor="middle" x="199.54" y="-54.61" font-family="Times,serif" font-size="14.00">D1</text>
</g>
<!-- D0&#45;&gt;D1 -->
<g id="edge2" class="edge">
<title>D0&#45;&gt;D1</title>
<path fill="none" stroke="black" d="M135.47,-59.66C144.59,-59.66 155.45,-59.66 165.57,-59.66"/>
<polygon fill="black" stroke="black" points="165.45,-63.16 175.45,-59.66 165.45,-56.16 165.45,-63.16"/>
<text text-anchor="middle" x="156.36" y="-62.86" font-family="Times,serif" font-size="14.00">a</text>
</g>
<!-- D1&#45;&gt;D3 -->
<g id="edge4" class="edge">
<title>D1&#45;&gt;D3</title>
<path fill="none" stroke="black" d="M220.75,-67.15C230.87,-70.89 243.4,-75.54 254.99,-79.83"/>
<polygon fill="black" stroke="black" points="253.7,-83.08 264.29,-83.27 256.13,-76.51 253.7,-83.08"/>
<text text-anchor="middle" x="243.09" y="-79.86" font-family="Times,serif" font-size="14.00">a</text>
</g>
<!-- D2 -->
<g id="node6" class="node">
<title>D2</title>
<ellipse fill="none" stroke="black" cx="290.64" cy="-26.66" rx="22.18" ry="22.18"/>
<text text-anchor="middle" x="290.64" y="-21.61" font-family="Times,serif" font-size="14.00">D2</text>
</g>
<!-- D1&#45;&gt;D2 -->
<g id="edge5" class="edge">
<title>D1&#45;&gt;D2</title>
<path fill="none" stroke="black" d="M220.75,-52.17C232.03,-47.99 246.31,-42.71 258.94,-38.03"/>
<polygon fill="black" stroke="black" points="259.92,-41.4 268.08,-34.64 257.49,-34.83 259.92,-41.4"/>
<text text-anchor="middle" x="243.09" y="-48.86" font-family="Times,serif" font-size="14.00">b</text>
</g>
<!-- D2&#45;&gt;D5 -->
<g id="edge6" class="edge">
<title>D2&#45;&gt;D5</title>
<path fill="none" stroke="black" d="M312.73,-29.91C322.11,-32.05 332.95,-35.54 341.57,-41.16 346.62,-44.45 354.63,-53.48 362.39,-63.08"/>
<polygon fill="black" stroke="black" points="359.47,-65.03 368.41,-70.71 364.97,-60.7 359.47,-65.03"/>
<text text-anchor="middle" x="338.2" y="-44.86" font-family="Times,serif" font-size="14.00">a</text>
</g>
<!-- D2&#45;&gt;D4 -->
<g id="edge7" class="edge">
<title>D2&#45;&gt;D4</title>
<path fill="none" stroke="black" d="M308.74,-13.7C316.31,-8.75 325.58,-3.68 334.82,-1.16 343.31,1.16 352.03,-1.34 359.75,-5.54"/>
<polygon fill="black" stroke="black" points="357.7,-8.38 367.98,-10.95 361.55,-2.53 357.7,-8.38"/>
<text text-anchor="middle" x="338.2" y="-4.86" font-family="Times,serif" font-size="14.00">b</text>
</g>
<!-- D4&#45;&gt;D6 -->
<g id="edge10" class="edge">
<title>D4&#45;&gt;D6</title>
<path fill="none" stroke="black" d="M407.23,-33.5C420.88,-38.05 439.09,-44.13 454.51,-49.28"/>
<polygon fill="black" stroke="black" points="453.12,-52.5 463.71,-52.35 455.34,-45.86 453.12,-52.5"/>
<text text-anchor="middle" x="438.18" y="-49.86" font-family="Times,serif" font-size="14.00">a,b</text>
</g>
<!-- D6&#45;&gt;D6 -->
<g id="edge12" class="edge">
<title>D6&#45;&gt;D6</title>
<path fill="none" stroke="black" d="M477.79,-80.33C476.57,-90.64 479.51,-99.84 486.61,-99.84 490.82,-99.84 493.56,-96.6 494.85,-91.8"/>
<polygon fill="black" stroke="black" points="498.34,-92.01 495.34,-81.84 491.35,-91.66 498.34,-92.01"/>
<text text-anchor="middle" x="486.61" y="-103.04" font-family="Times,serif" font-size="14.00">a,b</text>
</g>
</g>
</svg>
