<?xml version="1.0" encoding="UTF-8" standalone="no"?>
<!DOCTYPE svg PUBLIC "-//W3C//DTD SVG 1.1//EN"
 "http://www.w3.org/Graphics/SVG/1.1/DTD/svg11.dtd">
<!-- Generated by graphviz version 10.0.1 (20240210.2158)
 -->
<!-- Title: NFA Pages: 1 -->
<svg width="508pt" height="87pt"
 viewBox="0.00 0.00 507.81 86.76" xmlns="http://www.w3.org/2000/svg" xmlns:xlink="http://www.w3.org/1999/xlink">
<g id="graph0" class="graph" transform="scale(1 1) rotate(0) translate(4 82.76)">
<title>NFA</title>
<polygon fill="white" stroke="none" points="-4,4 -4,-82.76 503.81,-82.76 503.81,4 -4,4"/>
<!-- q3 -->
<g id="node1" class="node">
<title>q3</title>
<ellipse fill="none" stroke="black" cx="382.92" cy="-24.13" rx="20.13" ry="20.13"/>
<ellipse fill="none" stroke="black" cx="382.92" cy="-24.13" rx="24.13" ry="24.13"/>
<text text-anchor="middle" x="382.92" y="-19.08" font-family="Times,serif" font-size="14.00">q3</text>
</g>
<!-- q4 -->
<g id="node6" class="node">
<title>q4</title>
<ellipse fill="none" stroke="black" cx="479.68" cy="-24.13" rx="20.13" ry="20.13"/>
<text text-anchor="middle" x="479.68" y="-19.08" font-family="Times,serif" font-size="14.00">q4</text>
</g>
<!-- q3&#45;&gt;q4 -->
<g id="edge6" class="edge">
<title>q3&#45;&gt;q4</title>
<path fill="none" stroke="black" d="M407.34,-24.13C419.6,-24.13 434.75,-24.13 447.93,-24.13"/>
<polygon fill="black" stroke="black" points="447.84,-27.63 457.84,-24.13 447.84,-20.63 447.84,-27.63"/>
<text text-anchor="middle" x="433.3" y="-27.33" font-family="Times,serif" font-size="14.00">a,b</text>
</g>
<!-- start -->
<g id="node2" class="node">
<title>start</title>
</g>
<!-- q0 -->
<g id="node3" class="node">
<title>q0</title>
<ellipse fill="none" stroke="black" cx="111.13" cy="-24.13" rx="20.13" ry="20.13"/>
<text text-anchor="middle" x="111.13" y="-19.08" font-family="Times,serif" font-size="14.00">q0</text>
</g>
<!-- start&#45;&gt;q0 -->
<g id="edge1" class="edge">
<title>start&#45;&gt;q0</title>
<path fill="none" stroke="black" d="M53.99,-24.13C62.04,-24.13 70.98,-24.13 79.33,-24.13"/>
<polygon fill="black" stroke="black" points="79.05,-27.63 89.05,-24.13 79.05,-20.63 79.05,-27.63"/>
</g>
<!-- q0&#45;&gt;q0 -->
<g id="edge2" class="edge">
<title>q0&#45;&gt;q0</title>
<path fill="none" stroke="black" d="M104.14,-43.36C103.07,-53.3 105.4,-62.26 111.13,-62.26 114.45,-62.26 116.62,-59.27 117.66,-54.82"/>
<polygon fill="black" stroke="black" points="121.16,-55 118.06,-44.87 114.16,-54.72 121.16,-55"/>
<text text-anchor="middle" x="111.13" y="-65.46" font-family="Times,serif" font-size="14.00">b</text>
</g>
<!-- q1 -->
<g id="node4" class="node">
<title>q1</title>
<ellipse fill="none" stroke="black" cx="193.39" cy="-24.13" rx="20.13" ry="20.13"/>
<text text-anchor="middle" x="193.39" y="-19.08" font-family="Times,serif" font-size="14.00">q1</text>
</g>
<!-- q0&#45;&gt;q1 -->
<g id="edge3" class="edge">
<title>q0&#45;&gt;q1</title>
<path fill="none" stroke="black" d="M131.56,-24.13C140.56,-24.13 151.48,-24.13 161.57,-24.13"/>
<polygon fill="black" stroke="black" points="161.35,-27.63 171.35,-24.13 161.35,-20.63 161.35,-27.63"/>
<text text-anchor="middle" x="152.26" y="-27.33" font-family="Times,serif" font-size="14.00">a</text>
</g>
<!-- q2 -->
<g id="node5" class="node">
<title>q2</title>
<ellipse fill="none" stroke="black" cx="286.16" cy="-24.13" rx="20.13" ry="20.13"/>
<text text-anchor="middle" x="286.16" y="-19.08" font-family="Times,serif" font-size="14.00">q2</text>
</g>
<!-- q1&#45;&gt;q2 -->
<g id="edge4" class="edge">
<title>q1&#45;&gt;q2</title>
<path fill="none" stroke="black" d="M213.64,-24.13C225.47,-24.13 240.9,-24.13 254.4,-24.13"/>
<polygon fill="black" stroke="black" points="254.11,-27.63 264.11,-24.13 254.11,-20.63 254.11,-27.63"/>
<text text-anchor="middle" x="239.77" y="-27.33" font-family="Times,serif" font-size="14.00">a,b</text>
</g>
<!-- q2&#45;&gt;q3 -->
<g id="edge5" class="edge">
<title>q2&#45;&gt;q3</title>
<path fill="none" stroke="black" d="M306.33,-24.13C318.08,-24.13 333.46,-24.13 347.28,-24.13"/>
<polygon fill="black" stroke="black" points="346.89,-27.63 356.89,-24.13 346.89,-20.63 346.89,-27.63"/>
<text text-anchor="middle" x="332.54" y="-27.33" font-family="Times,serif" font-size="14.00">a,b</text>
</g>
<!-- q4&#45;&gt;q4 -->
<g id="edge7" class="edge">
<title>q4&#45;&gt;q4</title>
<path fill="none" stroke="black" d="M471.34,-42.97C469.93,-53.06 472.7,-62.26 479.68,-62.26 483.82,-62.26 486.48,-59.02 487.67,-54.27"/>
<polygon fill="black" stroke="black" points="491.16,-54.58 487.97,-44.48 484.16,-54.36 491.16,-54.58"/>
<text text-anchor="middle" x="479.68" y="-65.46" font-family="Times,serif" font-size="14.00">a,b</text>
</g>
</g>
</svg>
