<?xml version="1.0" encoding="UTF-8" standalone="no"?>
<!DOCTYPE svg PUBLIC "-//W3C//DTD SVG 1.1//EN"
 "http://www.w3.org/Graphics/SVG/1.1/DTD/svg11.dtd">
<!-- Generated by graphviz version 10.0.1 (20240210.2158)
 -->
<!-- Pages: 1 -->
<svg width="395pt" height="91pt"
 viewBox="0.00 0.00 394.80 91.26" xmlns="http://www.w3.org/2000/svg" xmlns:xlink="http://www.w3.org/1999/xlink">
<g id="graph0" class="graph" transform="scale(1 1) rotate(0) translate(4 87.26)">
<polygon fill="white" stroke="none" points="-4,4 -4,-87.26 390.8,-87.26 390.8,4 -4,4"/>
<!-- q0 -->
<g id="node1" class="node">
<title>q0</title>
<ellipse fill="none" stroke="black" cx="111.13" cy="-24.13" rx="20.13" ry="20.13"/>
<text text-anchor="middle" x="111.13" y="-19.08" font-family="Times,serif" font-size="14.00">q0</text>
</g>
<!-- q0&#45;&gt;q0 -->
<g id="edge2" class="edge">
<title>q0&#45;&gt;q0</title>
<path fill="none" stroke="black" d="M104.14,-43.36C103.07,-53.3 105.4,-62.26 111.13,-62.26 114.45,-62.26 116.62,-59.27 117.66,-54.82"/>
<polygon fill="black" stroke="black" points="121.16,-55 118.06,-44.87 114.16,-54.72 121.16,-55"/>
<text text-anchor="middle" x="111.13" y="-65.46" font-family="Times,serif" font-size="14.00">b</text>
</g>
<!-- q1 -->
<g id="node2" class="node">
<title>q1</title>
<ellipse fill="none" stroke="black" cx="193.39" cy="-24.13" rx="20.13" ry="20.13"/>
<text text-anchor="middle" x="193.39" y="-19.08" font-family="Times,serif" font-size="14.00">q1</text>
</g>
<!-- q0&#45;&gt;q1 -->
<g id="edge3" class="edge">
<title>q0&#45;&gt;q1</title>
<path fill="none" stroke="black" d="M131.56,-24.13C140.56,-24.13 151.48,-24.13 161.57,-24.13"/>
<polygon fill="black" stroke="black" points="161.35,-27.63 171.35,-24.13 161.35,-20.63 161.35,-27.63"/>
<text text-anchor="middle" x="152.26" y="-27.33" font-family="Times,serif" font-size="14.00">a</text>
</g>
<!-- q2 -->
<g id="node3" class="node">
<title>q2</title>
<ellipse fill="none" stroke="black" cx="276.41" cy="-63.13" rx="20.13" ry="20.13"/>
<text text-anchor="middle" x="276.41" y="-58.08" font-family="Times,serif" font-size="14.00">q2</text>
</g>
<!-- q1&#45;&gt;q2 -->
<g id="edge5" class="edge">
<title>q1&#45;&gt;q2</title>
<path fill="none" stroke="black" d="M211.97,-32.59C222.38,-37.6 235.79,-44.06 247.6,-49.74"/>
<polygon fill="black" stroke="black" points="245.97,-52.84 256.5,-54.03 249.01,-46.54 245.97,-52.84"/>
<text text-anchor="middle" x="234.9" y="-48.33" font-family="Times,serif" font-size="14.00">b</text>
</g>
<!-- q3 -->
<g id="node4" class="node">
<title>q3</title>
<ellipse fill="none" stroke="black" cx="362.67" cy="-24.13" rx="20.13" ry="20.13"/>
<ellipse fill="none" stroke="black" cx="362.67" cy="-24.13" rx="24.13" ry="24.13"/>
<text text-anchor="middle" x="362.67" y="-19.08" font-family="Times,serif" font-size="14.00">q3</text>
</g>
<!-- q1&#45;&gt;q3 -->
<g id="edge4" class="edge">
<title>q1&#45;&gt;q3</title>
<path fill="none" stroke="black" d="M213.86,-21.56C226.03,-20.08 242.03,-18.38 256.27,-17.63 274.14,-16.7 278.66,-16.74 296.54,-17.63 306.46,-18.13 317.21,-19.04 327.05,-20.03"/>
<polygon fill="black" stroke="black" points="326.68,-23.51 336.99,-21.09 327.42,-16.55 326.68,-23.51"/>
<text text-anchor="middle" x="276.41" y="-21.33" font-family="Times,serif" font-size="14.00">a</text>
</g>
<!-- q2&#45;&gt;q3 -->
<g id="edge6" class="edge">
<title>q2&#45;&gt;q3</title>
<path fill="none" stroke="black" d="M295.28,-54.86C305.34,-50.2 318.2,-44.25 329.91,-38.83"/>
<polygon fill="black" stroke="black" points="331.26,-42.06 338.87,-34.68 328.32,-35.71 331.26,-42.06"/>
<text text-anchor="middle" x="317.54" y="-48.33" font-family="Times,serif" font-size="14.00">a</text>
</g>
<!-- q3&#45;&gt;q3 -->
<g id="edge7" class="edge">
<title>q3&#45;&gt;q3</title>
<path fill="none" stroke="black" d="M354.34,-47.1C353.54,-57.38 356.32,-66.26 362.67,-66.26 366.44,-66.26 368.95,-63.13 370.2,-58.43"/>
<polygon fill="black" stroke="black" points="373.68,-58.83 370.89,-48.61 366.69,-58.34 373.68,-58.83"/>
<text text-anchor="middle" x="362.67" y="-69.46" font-family="Times,serif" font-size="14.00">a/b</text>
</g>
<!-- qi -->
<g id="node5" class="node">
<title>qi</title>
</g>
<!-- qi&#45;&gt;q0 -->
<g id="edge1" class="edge">
<title>qi&#45;&gt;q0</title>
<path fill="none" stroke="black" d="M53.99,-24.13C62.04,-24.13 70.98,-24.13 79.33,-24.13"/>
<polygon fill="black" stroke="black" points="79.05,-27.63 89.05,-24.13 79.05,-20.63 79.05,-27.63"/>
</g>
</g>
</svg>
