<?xml version="1.0" encoding="UTF-8" standalone="no"?>
<!DOCTYPE svg PUBLIC "-//W3C//DTD SVG 1.1//EN"
 "http://www.w3.org/Graphics/SVG/1.1/DTD/svg11.dtd">
<!-- Generated by graphviz version 10.0.1 (20240210.2158)
 -->
<!-- Title: M1 Pages: 1 -->
<svg width="221pt" height="126pt"
 viewBox="0.00 0.00 220.79 125.76" xmlns="http://www.w3.org/2000/svg" xmlns:xlink="http://www.w3.org/1999/xlink">
<g id="graph0" class="graph" transform="scale(1 1) rotate(0) translate(4 121.76)">
<title>M1</title>
<polygon fill="white" stroke="none" points="-4,4 -4,-121.76 216.79,-121.76 216.79,4 -4,4"/>
<!-- q0 -->
<g id="node1" class="node">
<title>q0</title>
<ellipse fill="none" stroke="black" cx="24.13" cy="-24.13" rx="20.13" ry="20.13"/>
<ellipse fill="none" stroke="black" cx="24.13" cy="-24.13" rx="24.13" ry="24.13"/>
<text text-anchor="middle" x="24.13" y="-19.08" font-family="Times,serif" font-size="14.00">q0</text>
</g>
<!-- q0&#45;&gt;q0 -->
<g id="edge4" class="edge">
<title>q0&#45;&gt;q0</title>
<path fill="none" stroke="black" d="M15.8,-47.1C15.01,-57.38 17.78,-66.26 24.13,-66.26 27.9,-66.26 30.41,-63.13 31.66,-58.43"/>
<polygon fill="black" stroke="black" points="35.14,-58.83 32.35,-48.61 28.16,-58.34 35.14,-58.83"/>
<text text-anchor="middle" x="24.13" y="-69.46" font-family="Times,serif" font-size="14.00">b</text>
</g>
<!-- q1 -->
<g id="node2" class="node">
<title>q1</title>
<ellipse fill="none" stroke="black" cx="110.39" cy="-63.13" rx="20.13" ry="20.13"/>
<text text-anchor="middle" x="110.39" y="-58.08" font-family="Times,serif" font-size="14.00">q1</text>
</g>
<!-- q0&#45;&gt;q1 -->
<g id="edge1" class="edge">
<title>q0&#45;&gt;q1</title>
<path fill="none" stroke="black" d="M46.39,-33.97C56.96,-38.86 69.87,-44.84 81.25,-50.1"/>
<polygon fill="black" stroke="black" points="79.64,-53.22 90.18,-54.24 82.58,-46.86 79.64,-53.22"/>
<text text-anchor="middle" x="69.26" y="-47.33" font-family="Times,serif" font-size="14.00">a</text>
</g>
<!-- q1&#45;&gt;q1 -->
<g id="edge5" class="edge">
<title>q1&#45;&gt;q1</title>
<path fill="none" stroke="black" d="M102.95,-82.36C101.81,-92.3 104.29,-101.26 110.39,-101.26 113.92,-101.26 116.24,-98.27 117.35,-93.82"/>
<polygon fill="black" stroke="black" points="120.84,-94.01 117.77,-83.87 113.85,-93.71 120.84,-94.01"/>
<text text-anchor="middle" x="110.39" y="-104.46" font-family="Times,serif" font-size="14.00">b</text>
</g>
<!-- q2 -->
<g id="node3" class="node">
<title>q2</title>
<ellipse fill="none" stroke="black" cx="192.66" cy="-24.13" rx="20.13" ry="20.13"/>
<text text-anchor="middle" x="192.66" y="-19.08" font-family="Times,serif" font-size="14.00">q2</text>
</g>
<!-- q1&#45;&gt;q2 -->
<g id="edge2" class="edge">
<title>q1&#45;&gt;q2</title>
<path fill="none" stroke="black" d="M128.81,-54.67C139.05,-49.69 152.22,-43.29 163.86,-37.63"/>
<polygon fill="black" stroke="black" points="165.17,-40.89 172.64,-33.37 162.11,-34.6 165.17,-40.89"/>
<text text-anchor="middle" x="151.52" y="-47.33" font-family="Times,serif" font-size="14.00">a</text>
</g>
<!-- q2&#45;&gt;q0 -->
<g id="edge3" class="edge">
<title>q2&#45;&gt;q0</title>
<path fill="none" stroke="black" d="M172.42,-21.56C160.41,-20.08 144.59,-18.38 130.52,-17.63 112.66,-16.68 108.13,-16.74 90.26,-17.63 80.34,-18.13 69.59,-19.04 59.75,-20.03"/>
<polygon fill="black" stroke="black" points="59.38,-16.55 49.8,-21.09 60.12,-23.51 59.38,-16.55"/>
<text text-anchor="middle" x="110.39" y="-21.33" font-family="Times,serif" font-size="14.00">a</text>
</g>
<!-- q2&#45;&gt;q2 -->
<g id="edge6" class="edge">
<title>q2&#45;&gt;q2</title>
<path fill="none" stroke="black" d="M185.21,-43.36C184.07,-53.3 186.55,-62.26 192.66,-62.26 196.19,-62.26 198.5,-59.27 199.61,-54.82"/>
<polygon fill="black" stroke="black" points="203.1,-55.01 200.03,-44.87 196.11,-54.71 203.1,-55.01"/>
<text text-anchor="middle" x="192.66" y="-65.46" font-family="Times,serif" font-size="14.00">b</text>
</g>
</g>
</svg>
