<?xml version="1.0" encoding="UTF-8"?>
<svg xmlns="http://www.w3.org/2000/svg" width="239" height="201">
   <defs>
      <style type="text/css">
    @namespace "http://www.w3.org/2000/svg";
    .line                 {fill: none; stroke: #332900; stroke-width: 1;}
    .bold-line            {stroke: #141000; shape-rendering: crispEdges; stroke-width: 2;}
    .thin-line            {stroke: #1F1800; shape-rendering: crispEdges}
    .filled               {fill: #332900; stroke: none;}
    text.terminal         {font-family: Verdana, Sans-serif;
                            font-size: 12px;
                            fill: #141000;
                            font-weight: bold;
                          }
    text.nonterminal      {font-family: Verdana, Sans-serif;
                            font-size: 12px;
                            fill: #1A1400;
                            font-weight: normal;
                          }
    text.regexp           {font-family: Verdana, Sans-serif;
                            font-size: 12px;
                            fill: #1F1800;
                            font-weight: normal;
                          }
    rect, circle, polygon {fill: #332900; stroke: #332900;}
    rect.terminal         {fill: #FFDB4D; stroke: #332900; stroke-width: 1;}
    rect.nonterminal      {fill: #FFEC9E; stroke: #332900; stroke-width: 1;}
    rect.text             {fill: none; stroke: none;}
    polygon.regexp        {fill: #FFF4C7; stroke: #332900; stroke-width: 1;}
  </style>
   </defs>
   <polygon points="9 105 1 101 1 109"/>
   <polygon points="17 105 9 101 9 109"/>
   <rect x="51" y="123" width="30" height="32" rx="10"/>
   <rect x="49"
         y="121"
         width="30"
         height="32"
         class="terminal"
         rx="10"/>
   <text class="terminal" x="59" y="141">+</text>
   <rect x="51" y="167" width="26" height="32" rx="10"/>
   <rect x="49"
         y="165"
         width="26"
         height="32"
         class="terminal"
         rx="10"/>
   <text class="terminal" x="59" y="185">-</text>
   <a xmlns:xlink="http://www.w3.org/1999/xlink"
      xlink:href="#term"
      xlink:title="term">
      <rect x="141" y="91" width="50" height="32"/>
      <rect x="139" y="89" width="50" height="32" class="nonterminal"/>
      <text class="nonterminal" x="149" y="109">term</text>
   </a>
   <rect x="141" y="47" width="30" height="32" rx="10"/>
   <rect x="139"
         y="45"
         width="30"
         height="32"
         class="terminal"
         rx="10"/>
   <text class="terminal" x="149" y="65">+</text>
   <rect x="141" y="3" width="26" height="32" rx="10"/>
   <rect x="139"
         y="1"
         width="26"
         height="32"
         class="terminal"
         rx="10"/>
   <text class="terminal" x="149" y="21">-</text>
   <path class="line"
         d="m17 105 h2 m20 0 h10 m0 0 h40 m-70 0 h20 m50 0 h20 m-90 0 q10 0 10 10 m70 0 q0 -10 10 -10 m-80 10 v12 m70 0 v-12 m-70 12 q0 10 10 10 m50 0 q10 0 10 -10 m-60 10 h10 m30 0 h10 m-60 -10 v20 m70 0 v-20 m-70 20 v24 m70 0 v-24 m-70 24 q0 10 10 10 m50 0 q10 0 10 -10 m-60 10 h10 m26 0 h10 m0 0 h4 m40 -76 h10 m50 0 h10 m-90 0 l20 0 m-1 0 q-9 0 -9 -10 l0 -24 q0 -10 10 -10 m70 44 l20 0 m-20 0 q10 0 10 -10 l0 -24 q0 -10 -10 -10 m-70 0 h10 m30 0 h10 m0 0 h20 m-80 10 l0 -44 q0 -10 10 -10 m80 54 l0 -44 q0 -10 -10 -10 m-70 0 h10 m26 0 h10 m0 0 h24 m23 88 h-3"/>
   <polygon points="229 105 237 101 237 109"/>
   <polygon points="229 105 221 101 221 109"/>
</svg>
